<?xml version="1.0" encoding="UTF-8" standalone="no"?>
<!DOCTYPE svg PUBLIC "-//W3C//DTD SVG 1.1//EN"
 "http://www.w3.org/Graphics/SVG/1.1/DTD/svg11.dtd">
<!-- Generated by graphviz version 2.49.0 (20210828.1703)
 -->
<!-- Title: models_diagram Pages: 1 -->
<svg width="2255pt" height="1305pt"
 viewBox="0.00 0.00 2255.00 1305.00" xmlns="http://www.w3.org/2000/svg" xmlns:xlink="http://www.w3.org/1999/xlink">
<g id="graph0" class="graph" transform="scale(1 1) rotate(0) translate(4 1301)">
<title>models_diagram</title>
<polygon fill="transparent" stroke="transparent" points="-4,4 -4,-1301 2251,-1301 2251,4 -4,4"/>
<!-- _diagram_info -->
<g id="node1" class="node">
<title>_diagram_info</title>
<text text-anchor="start" x="692" y="-1208.1" font-family="Times,serif" font-size="13.00">Models diagram</text>
<text text-anchor="start" x="692" y="-1194.1" font-family="Times,serif" font-size="13.00">Date: Sep 07 2021 &#45; 15:41</text>
<text text-anchor="start" x="692" y="-1180.1" font-family="Times,serif" font-size="13.00">Migration version: 20210513191901</text>
<text text-anchor="start" x="692" y="-1166.1" font-family="Times,serif" font-size="13.00">Generated by RailRoady 1.6.0</text>
<text text-anchor="start" x="692" y="-1152.1" font-family="Times,serif" font-size="13.00">http://railroady.prestonlee.com</text>
</g>
<!-- ProjectCategory -->
<g id="node2" class="node">
<title>ProjectCategory</title>
<path fill="none" stroke="black" d="M922,-911.5C922,-911.5 1048,-911.5 1048,-911.5 1054,-911.5 1060,-917.5 1060,-923.5 1060,-923.5 1060,-990.5 1060,-990.5 1060,-996.5 1054,-1002.5 1048,-1002.5 1048,-1002.5 922,-1002.5 922,-1002.5 916,-1002.5 910,-996.5 910,-990.5 910,-990.5 910,-923.5 910,-923.5 910,-917.5 916,-911.5 922,-911.5"/>
<text text-anchor="middle" x="985" y="-987.3" font-family="Times,serif" font-size="14.00">ProjectCategory</text>
<polyline fill="none" stroke="black" points="910,-979.5 1060,-979.5 "/>
<text text-anchor="start" x="918" y="-964.3" font-family="Times,serif" font-size="14.00">id :integer</text>
<text text-anchor="start" x="918" y="-949.3" font-family="Times,serif" font-size="14.00">name :varchar</text>
<text text-anchor="start" x="918" y="-934.3" font-family="Times,serif" font-size="14.00">created_at :datetime(6)</text>
<text text-anchor="start" x="918" y="-919.3" font-family="Times,serif" font-size="14.00">updated_at :datetime(6)</text>
</g>
<!-- ProjectEventDetail -->
<g id="node3" class="node">
<title>ProjectEventDetail</title>
<path fill="none" stroke="black" d="M1090,-1123C1090,-1123 1216,-1123 1216,-1123 1222,-1123 1228,-1129 1228,-1135 1228,-1135 1228,-1232 1228,-1232 1228,-1238 1222,-1244 1216,-1244 1216,-1244 1090,-1244 1090,-1244 1084,-1244 1078,-1238 1078,-1232 1078,-1232 1078,-1135 1078,-1135 1078,-1129 1084,-1123 1090,-1123"/>
<text text-anchor="middle" x="1153" y="-1228.8" font-family="Times,serif" font-size="14.00">ProjectEventDetail</text>
<polyline fill="none" stroke="black" points="1078,-1221 1228,-1221 "/>
<text text-anchor="start" x="1086" y="-1205.8" font-family="Times,serif" font-size="14.00">id :integer</text>
<text text-anchor="start" x="1086" y="-1190.8" font-family="Times,serif" font-size="14.00">stand :integer</text>
<text text-anchor="start" x="1086" y="-1175.8" font-family="Times,serif" font-size="14.00">final_score :integer</text>
<text text-anchor="start" x="1086" y="-1160.8" font-family="Times,serif" font-size="14.00">project_id :integer</text>
<text text-anchor="start" x="1086" y="-1145.8" font-family="Times,serif" font-size="14.00">created_at :datetime(6)</text>
<text text-anchor="start" x="1086" y="-1130.8" font-family="Times,serif" font-size="14.00">updated_at :datetime(6)</text>
</g>
<!-- Project -->
<g id="node8" class="node">
<title>Project</title>
<path fill="none" stroke="black" d="M1090,-881.5C1090,-881.5 1216,-881.5 1216,-881.5 1222,-881.5 1228,-887.5 1228,-893.5 1228,-893.5 1228,-1020.5 1228,-1020.5 1228,-1026.5 1222,-1032.5 1216,-1032.5 1216,-1032.5 1090,-1032.5 1090,-1032.5 1084,-1032.5 1078,-1026.5 1078,-1020.5 1078,-1020.5 1078,-893.5 1078,-893.5 1078,-887.5 1084,-881.5 1090,-881.5"/>
<text text-anchor="middle" x="1153" y="-1017.3" font-family="Times,serif" font-size="14.00">Project</text>
<polyline fill="none" stroke="black" points="1078,-1009.5 1228,-1009.5 "/>
<text text-anchor="start" x="1086" y="-994.3" font-family="Times,serif" font-size="14.00">updated_at :datetime(6)</text>
<text text-anchor="start" x="1086" y="-979.3" font-family="Times,serif" font-size="14.00">status :integer</text>
<text text-anchor="start" x="1086" y="-964.3" font-family="Times,serif" font-size="14.00">student_id :integer</text>
<text text-anchor="start" x="1086" y="-949.3" font-family="Times,serif" font-size="14.00">professor_id :integer</text>
<text text-anchor="start" x="1086" y="-934.3" font-family="Times,serif" font-size="14.00">institution_id :integer</text>
<text text-anchor="start" x="1086" y="-919.3" font-family="Times,serif" font-size="14.00">edition_id :integer</text>
<text text-anchor="start" x="1086" y="-904.3" font-family="Times,serif" font-size="14.00">created_at :datetime(6)</text>
<text text-anchor="start" x="1086" y="-889.3" font-family="Times,serif" font-size="14.00">id :integer</text>
</g>
<!-- ProjectEventDetail&#45;&gt;Project -->
<g id="edge1" class="edge">
<title>ProjectEventDetail&#45;&gt;Project</title>
<path fill="none" stroke="#d60495" d="M1153,-1112.65C1153,-1090.55 1153,-1065.87 1153,-1042.84"/>
<polygon fill="#d60495" stroke="#d60495" points="1153,-1112.93 1148.5,-1122.93 1153,-1117.93 1153,-1122.93 1153,-1122.93 1153,-1122.93 1153,-1117.93 1157.5,-1122.93 1153,-1112.93 1153,-1112.93"/>
<polygon fill="#d60495" stroke="#d60495" points="1153,-1042.74 1157.5,-1032.74 1153,-1037.74 1153,-1032.74 1153,-1032.74 1153,-1032.74 1153,-1037.74 1148.5,-1032.74 1153,-1042.74 1153,-1042.74"/>
</g>
<!-- ProjectDetail -->
<g id="node4" class="node">
<title>ProjectDetail</title>
<path fill="none" stroke="black" d="M922,-1070.5C922,-1070.5 1048,-1070.5 1048,-1070.5 1054,-1070.5 1060,-1076.5 1060,-1082.5 1060,-1082.5 1060,-1284.5 1060,-1284.5 1060,-1290.5 1054,-1296.5 1048,-1296.5 1048,-1296.5 922,-1296.5 922,-1296.5 916,-1296.5 910,-1290.5 910,-1284.5 910,-1284.5 910,-1082.5 910,-1082.5 910,-1076.5 916,-1070.5 922,-1070.5"/>
<text text-anchor="middle" x="985" y="-1281.3" font-family="Times,serif" font-size="14.00">ProjectDetail</text>
<polyline fill="none" stroke="black" points="910,-1273.5 1060,-1273.5 "/>
<text text-anchor="start" x="918" y="-1258.3" font-family="Times,serif" font-size="14.00">type_of :varchar</text>
<text text-anchor="start" x="918" y="-1243.3" font-family="Times,serif" font-size="14.00">name :varchar</text>
<text text-anchor="start" x="918" y="-1228.3" font-family="Times,serif" font-size="14.00">description :text</text>
<text text-anchor="start" x="918" y="-1213.3" font-family="Times,serif" font-size="14.00">video_url :text</text>
<text text-anchor="start" x="918" y="-1198.3" font-family="Times,serif" font-size="14.00">semestre_i :boolean</text>
<text text-anchor="start" x="918" y="-1183.3" font-family="Times,serif" font-size="14.00">social_impact :boolean</text>
<text text-anchor="start" x="918" y="-1168.3" font-family="Times,serif" font-size="14.00">client_type :varchar</text>
<text text-anchor="start" x="918" y="-1153.3" font-family="Times,serif" font-size="14.00">project_id :integer</text>
<text text-anchor="start" x="918" y="-1138.3" font-family="Times,serif" font-size="14.00">created_at :datetime(6)</text>
<text text-anchor="start" x="918" y="-1123.3" font-family="Times,serif" font-size="14.00">updated_at :datetime(6)</text>
<text text-anchor="start" x="918" y="-1108.3" font-family="Times,serif" font-size="14.00">category :varchar</text>
<text text-anchor="start" x="918" y="-1093.3" font-family="Times,serif" font-size="14.00">area :varchar</text>
<text text-anchor="start" x="918" y="-1078.3" font-family="Times,serif" font-size="14.00">id :integer</text>
</g>
<!-- ProjectDetail&#45;&gt;ProjectCategory -->
<g id="edge3" class="edge">
<title>ProjectDetail&#45;&gt;ProjectCategory</title>
<path fill="none" stroke="#8bce87" d="M985,-1060.13C985,-1043.59 985,-1027.35 985,-1012.85"/>
<polygon fill="#8bce87" stroke="#8bce87" points="985,-1060.25 980.5,-1070.25 985,-1065.25 985,-1070.25 985,-1070.25 985,-1070.25 985,-1065.25 989.5,-1070.25 985,-1060.25 985,-1060.25"/>
<polygon fill="#8bce87" stroke="#8bce87" points="985,-1012.62 989.5,-1002.62 985,-1007.62 985,-1002.62 985,-1002.62 985,-1002.62 985,-1007.62 980.5,-1002.62 985,-1012.62 985,-1012.62"/>
</g>
<!-- ProjectDetail&#45;&gt;Project -->
<g id="edge2" class="edge">
<title>ProjectDetail&#45;&gt;Project</title>
<path fill="none" stroke="#1f479e" d="M1066.25,-1073.68C1067.17,-1072.45 1068.09,-1071.22 1069,-1070 1076.05,-1060.57 1083.45,-1050.71 1090.79,-1040.9"/>
<polygon fill="#1f479e" stroke="#1f479e" points="1066.08,-1073.9 1056.49,-1079.21 1063.09,-1077.9 1060.1,-1081.9 1060.1,-1081.9 1060.1,-1081.9 1063.09,-1077.9 1063.7,-1084.6 1066.08,-1073.9 1066.08,-1073.9"/>
<polygon fill="#1f479e" stroke="#1f479e" points="1090.95,-1040.69 1100.55,-1035.39 1093.95,-1036.69 1096.95,-1032.69 1096.95,-1032.69 1096.95,-1032.69 1093.95,-1036.69 1093.35,-1029.99 1090.95,-1040.69 1090.95,-1040.69"/>
</g>
<!-- Operative -->
<g id="node5" class="node">
<title>Operative</title>
<path fill="none" stroke="black" d="M1567,-390C1567,-390 1693,-390 1693,-390 1699,-390 1705,-396 1705,-402 1705,-402 1705,-454 1705,-454 1705,-460 1699,-466 1693,-466 1693,-466 1567,-466 1567,-466 1561,-466 1555,-460 1555,-454 1555,-454 1555,-402 1555,-402 1555,-396 1561,-390 1567,-390"/>
<text text-anchor="middle" x="1630" y="-450.8" font-family="Times,serif" font-size="14.00">Operative</text>
<polyline fill="none" stroke="black" points="1555,-443 1705,-443 "/>
<text text-anchor="start" x="1563" y="-427.8" font-family="Times,serif" font-size="14.00">id :integer</text>
<text text-anchor="start" x="1563" y="-412.8" font-family="Times,serif" font-size="14.00">created_at :datetime(6)</text>
<text text-anchor="start" x="1563" y="-397.8" font-family="Times,serif" font-size="14.00">updated_at :datetime(6)</text>
</g>
<!-- User -->
<g id="node28" class="node">
<title>User</title>
<path fill="none" stroke="black" d="M1487.5,-73.5C1487.5,-73.5 1668.5,-73.5 1668.5,-73.5 1674.5,-73.5 1680.5,-79.5 1680.5,-85.5 1680.5,-85.5 1680.5,-317.5 1680.5,-317.5 1680.5,-323.5 1674.5,-329.5 1668.5,-329.5 1668.5,-329.5 1487.5,-329.5 1487.5,-329.5 1481.5,-329.5 1475.5,-323.5 1475.5,-317.5 1475.5,-317.5 1475.5,-85.5 1475.5,-85.5 1475.5,-79.5 1481.5,-73.5 1487.5,-73.5"/>
<text text-anchor="middle" x="1578" y="-314.3" font-family="Times,serif" font-size="14.00">User</text>
<polyline fill="none" stroke="black" points="1475.5,-306.5 1680.5,-306.5 "/>
<text text-anchor="start" x="1483.5" y="-291.3" font-family="Times,serif" font-size="14.00">institution_id :integer</text>
<text text-anchor="start" x="1483.5" y="-276.3" font-family="Times,serif" font-size="14.00">email :varchar</text>
<text text-anchor="start" x="1483.5" y="-261.3" font-family="Times,serif" font-size="14.00">encrypted_password :varchar</text>
<text text-anchor="start" x="1483.5" y="-246.3" font-family="Times,serif" font-size="14.00">reset_password_token :varchar</text>
<text text-anchor="start" x="1483.5" y="-231.3" font-family="Times,serif" font-size="14.00">reset_password_sent_at :datetime</text>
<text text-anchor="start" x="1483.5" y="-216.3" font-family="Times,serif" font-size="14.00">remember_created_at :datetime</text>
<text text-anchor="start" x="1483.5" y="-201.3" font-family="Times,serif" font-size="14.00">created_at :datetime(6)</text>
<text text-anchor="start" x="1483.5" y="-186.3" font-family="Times,serif" font-size="14.00">updated_at :datetime(6)</text>
<text text-anchor="start" x="1483.5" y="-171.3" font-family="Times,serif" font-size="14.00">status :integer</text>
<text text-anchor="start" x="1483.5" y="-156.3" font-family="Times,serif" font-size="14.00">first_name :varchar</text>
<text text-anchor="start" x="1483.5" y="-141.3" font-family="Times,serif" font-size="14.00">last_name :varchar</text>
<text text-anchor="start" x="1483.5" y="-126.3" font-family="Times,serif" font-size="14.00">userable_id :integer</text>
<text text-anchor="start" x="1483.5" y="-111.3" font-family="Times,serif" font-size="14.00">userable_type :varchar</text>
<text text-anchor="start" x="1483.5" y="-96.3" font-family="Times,serif" font-size="14.00">edition_id :integer</text>
<text text-anchor="start" x="1483.5" y="-81.3" font-family="Times,serif" font-size="14.00">id :integer</text>
</g>
<!-- Operative&#45;&gt;User -->
<g id="edge4" class="edge">
<title>Operative&#45;&gt;User</title>
<path fill="none" stroke="#a9335c" d="M1619.11,-379.98C1616.29,-367.83 1613.12,-354.12 1609.81,-339.84"/>
<polygon fill="#a9335c" stroke="#a9335c" points="1619.16,-380.19 1617.03,-390.94 1620.28,-385.06 1621.41,-389.93 1621.41,-389.93 1621.41,-389.93 1620.28,-385.06 1625.8,-388.91 1619.16,-380.19 1619.16,-380.19"/>
<polygon fill="#a9335c" stroke="#a9335c" points="1609.76,-339.62 1611.89,-328.86 1608.63,-334.75 1607.5,-329.88 1607.5,-329.88 1607.5,-329.88 1608.63,-334.75 1603.12,-330.89 1609.76,-339.62 1609.76,-339.62"/>
</g>
<!-- Collaborator -->
<g id="node6" class="node">
<title>Collaborator</title>
<path fill="none" stroke="black" d="M1258,-1100.5C1258,-1100.5 1384,-1100.5 1384,-1100.5 1390,-1100.5 1396,-1106.5 1396,-1112.5 1396,-1112.5 1396,-1254.5 1396,-1254.5 1396,-1260.5 1390,-1266.5 1384,-1266.5 1384,-1266.5 1258,-1266.5 1258,-1266.5 1252,-1266.5 1246,-1260.5 1246,-1254.5 1246,-1254.5 1246,-1112.5 1246,-1112.5 1246,-1106.5 1252,-1100.5 1258,-1100.5"/>
<text text-anchor="middle" x="1321" y="-1251.3" font-family="Times,serif" font-size="14.00">Collaborator</text>
<polyline fill="none" stroke="black" points="1246,-1243.5 1396,-1243.5 "/>
<text text-anchor="start" x="1254" y="-1228.3" font-family="Times,serif" font-size="14.00">updated_at :datetime(6)</text>
<text text-anchor="start" x="1254" y="-1213.3" font-family="Times,serif" font-size="14.00">first_name :varchar</text>
<text text-anchor="start" x="1254" y="-1198.3" font-family="Times,serif" font-size="14.00">last_name :varchar</text>
<text text-anchor="start" x="1254" y="-1183.3" font-family="Times,serif" font-size="14.00">email :varchar</text>
<text text-anchor="start" x="1254" y="-1168.3" font-family="Times,serif" font-size="14.00">major :varchar</text>
<text text-anchor="start" x="1254" y="-1153.3" font-family="Times,serif" font-size="14.00">student_code :varchar</text>
<text text-anchor="start" x="1254" y="-1138.3" font-family="Times,serif" font-size="14.00">project_id :integer</text>
<text text-anchor="start" x="1254" y="-1123.3" font-family="Times,serif" font-size="14.00">created_at :datetime(6)</text>
<text text-anchor="start" x="1254" y="-1108.3" font-family="Times,serif" font-size="14.00">id :integer</text>
</g>
<!-- Collaborator&#45;&gt;Project -->
<g id="edge5" class="edge">
<title>Collaborator&#45;&gt;Project</title>
<path fill="none" stroke="#241f36" d="M1253.66,-1092.28C1248.03,-1084.74 1242.42,-1077.24 1237,-1070 1229.95,-1060.57 1222.55,-1050.71 1215.21,-1040.9"/>
<polygon fill="#241f36" stroke="#241f36" points="1253.79,-1092.45 1256.17,-1103.15 1256.78,-1096.45 1259.77,-1100.46 1259.77,-1100.46 1259.77,-1100.46 1256.78,-1096.45 1263.38,-1097.76 1253.79,-1092.45 1253.79,-1092.45"/>
<polygon fill="#241f36" stroke="#241f36" points="1215.05,-1040.69 1212.65,-1029.99 1212.05,-1036.69 1209.05,-1032.69 1209.05,-1032.69 1209.05,-1032.69 1212.05,-1036.69 1205.45,-1035.39 1215.05,-1040.69 1215.05,-1040.69"/>
</g>
<!-- Department -->
<g id="node7" class="node">
<title>Department</title>
<path fill="none" stroke="black" d="M1426,-1138C1426,-1138 1552,-1138 1552,-1138 1558,-1138 1564,-1144 1564,-1150 1564,-1150 1564,-1217 1564,-1217 1564,-1223 1558,-1229 1552,-1229 1552,-1229 1426,-1229 1426,-1229 1420,-1229 1414,-1223 1414,-1217 1414,-1217 1414,-1150 1414,-1150 1414,-1144 1420,-1138 1426,-1138"/>
<text text-anchor="middle" x="1489" y="-1213.8" font-family="Times,serif" font-size="14.00">Department</text>
<polyline fill="none" stroke="black" points="1414,-1206 1564,-1206 "/>
<text text-anchor="start" x="1422" y="-1190.8" font-family="Times,serif" font-size="14.00">id :integer</text>
<text text-anchor="start" x="1422" y="-1175.8" font-family="Times,serif" font-size="14.00">name :varchar</text>
<text text-anchor="start" x="1422" y="-1160.8" font-family="Times,serif" font-size="14.00">created_at :datetime(6)</text>
<text text-anchor="start" x="1422" y="-1145.8" font-family="Times,serif" font-size="14.00">updated_at :datetime(6)</text>
</g>
<!-- Student -->
<g id="node9" class="node">
<title>Student</title>
<path fill="none" stroke="black" d="M12,-507.5C12,-507.5 138,-507.5 138,-507.5 144,-507.5 150,-513.5 150,-519.5 150,-519.5 150,-601.5 150,-601.5 150,-607.5 144,-613.5 138,-613.5 138,-613.5 12,-613.5 12,-613.5 6,-613.5 0,-607.5 0,-601.5 0,-601.5 0,-519.5 0,-519.5 0,-513.5 6,-507.5 12,-507.5"/>
<text text-anchor="middle" x="75" y="-598.3" font-family="Times,serif" font-size="14.00">Student</text>
<polyline fill="none" stroke="black" points="0,-590.5 150,-590.5 "/>
<text text-anchor="start" x="8" y="-575.3" font-family="Times,serif" font-size="14.00">id :integer</text>
<text text-anchor="start" x="8" y="-560.3" font-family="Times,serif" font-size="14.00">major :varchar</text>
<text text-anchor="start" x="8" y="-545.3" font-family="Times,serif" font-size="14.00">student_code :varchar</text>
<text text-anchor="start" x="8" y="-530.3" font-family="Times,serif" font-size="14.00">created_at :datetime(6)</text>
<text text-anchor="start" x="8" y="-515.3" font-family="Times,serif" font-size="14.00">updated_at :datetime(6)</text>
</g>
<!-- Project&#45;&gt;Student -->
<g id="edge6" class="edge">
<title>Project&#45;&gt;Student</title>
<path fill="none" stroke="#1266a1" d="M1068.25,-882.01C987.92,-860.2 646.15,-857.97 598,-844 429.71,-795.17 254.58,-686.83 155.72,-619.41"/>
<polygon fill="#1266a1" stroke="#1266a1" points="1068.31,-882.03 1076.36,-889.49 1073.05,-883.63 1077.79,-885.22 1077.79,-885.22 1077.79,-885.22 1073.05,-883.63 1079.23,-880.96 1068.31,-882.03 1068.31,-882.03"/>
<polygon fill="#1266a1" stroke="#1266a1" points="155.52,-619.27 149.81,-609.91 151.39,-616.45 147.27,-613.62 147.27,-613.62 147.27,-613.62 151.39,-616.45 144.72,-617.33 155.52,-619.27 155.52,-619.27"/>
</g>
<!-- VirtualSample -->
<g id="node10" class="node">
<title>VirtualSample</title>
<path fill="none" stroke="black" d="M619,-685C619,-685 745,-685 745,-685 751,-685 757,-691 757,-697 757,-697 757,-779 757,-779 757,-785 751,-791 745,-791 745,-791 619,-791 619,-791 613,-791 607,-785 607,-779 607,-779 607,-697 607,-697 607,-691 613,-685 619,-685"/>
<text text-anchor="middle" x="682" y="-775.8" font-family="Times,serif" font-size="14.00">VirtualSample</text>
<polyline fill="none" stroke="black" points="607,-768 757,-768 "/>
<text text-anchor="start" x="615" y="-752.8" font-family="Times,serif" font-size="14.00">id :integer</text>
<text text-anchor="start" x="615" y="-737.8" font-family="Times,serif" font-size="14.00">video_link :text</text>
<text text-anchor="start" x="615" y="-722.8" font-family="Times,serif" font-size="14.00">project_id :integer</text>
<text text-anchor="start" x="615" y="-707.8" font-family="Times,serif" font-size="14.00">created_at :datetime(6)</text>
<text text-anchor="start" x="615" y="-692.8" font-family="Times,serif" font-size="14.00">updated_at :datetime(6)</text>
</g>
<!-- Project&#45;&gt;VirtualSample -->
<g id="edge11" class="edge">
<title>Project&#45;&gt;VirtualSample</title>
<path fill="none" stroke="#028ec0" d="M1069.28,-881.13C1069.19,-881.09 1069.09,-881.04 1069,-881 1013.81,-855.54 853.1,-869.65 798,-844 774.41,-833.02 752.24,-815.56 733.72,-798"/>
<polygon fill="#028ec0" stroke="#028ec0" points="1069.06,-881.02 1075.9,-889.59 1073.51,-883.3 1077.95,-885.59 1077.95,-885.59 1077.95,-885.59 1073.51,-883.3 1080.01,-881.59 1069.06,-881.02 1069.06,-881.02"/>
<polygon fill="#028ec0" stroke="#028ec0" points="733.71,-797.99 729.68,-787.79 730.12,-794.5 726.54,-791.02 726.54,-791.02 726.54,-791.02 730.12,-794.5 723.4,-794.24 733.71,-797.99 733.71,-797.99"/>
</g>
<!-- SocialImpact -->
<g id="node11" class="node">
<title>SocialImpact</title>
<path fill="none" stroke="black" d="M819,-670C819,-670 945,-670 945,-670 951,-670 957,-676 957,-682 957,-682 957,-794 957,-794 957,-800 951,-806 945,-806 945,-806 819,-806 819,-806 813,-806 807,-800 807,-794 807,-794 807,-682 807,-682 807,-676 813,-670 819,-670"/>
<text text-anchor="middle" x="882" y="-790.8" font-family="Times,serif" font-size="14.00">SocialImpact</text>
<polyline fill="none" stroke="black" points="807,-783 957,-783 "/>
<text text-anchor="start" x="815" y="-767.8" font-family="Times,serif" font-size="14.00">id :integer</text>
<text text-anchor="start" x="815" y="-752.8" font-family="Times,serif" font-size="14.00">problem :text</text>
<text text-anchor="start" x="815" y="-737.8" font-family="Times,serif" font-size="14.00">empathy :text</text>
<text text-anchor="start" x="815" y="-722.8" font-family="Times,serif" font-size="14.00">responsibility :text</text>
<text text-anchor="start" x="815" y="-707.8" font-family="Times,serif" font-size="14.00">project_id :integer</text>
<text text-anchor="start" x="815" y="-692.8" font-family="Times,serif" font-size="14.00">created_at :datetime(6)</text>
<text text-anchor="start" x="815" y="-677.8" font-family="Times,serif" font-size="14.00">updated_at :datetime(6)</text>
</g>
<!-- Project&#45;&gt;SocialImpact -->
<g id="edge14" class="edge">
<title>Project&#45;&gt;SocialImpact</title>
<path fill="none" stroke="#c8a8e3" d="M1069.27,-881.16C1069.18,-881.11 1069.09,-881.05 1069,-881 1027.2,-856.12 1005.58,-872.28 966,-844 954.19,-835.56 943.17,-825.03 933.24,-813.93"/>
<polygon fill="#c8a8e3" stroke="#c8a8e3" points="1069.08,-881.04 1075.12,-890.19 1073.31,-883.72 1077.53,-886.39 1077.53,-886.39 1077.53,-886.39 1073.31,-883.72 1079.94,-882.59 1069.08,-881.04 1069.08,-881.04"/>
<polygon fill="#c8a8e3" stroke="#c8a8e3" points="933.08,-813.73 929.96,-803.22 929.81,-809.95 926.55,-806.16 926.55,-806.16 926.55,-806.16 929.81,-809.95 923.14,-809.1 933.08,-813.73 933.08,-813.73"/>
</g>
<!-- Edition -->
<g id="node16" class="node">
<title>Edition</title>
<path fill="none" stroke="black" d="M987,-677.5C987,-677.5 1113,-677.5 1113,-677.5 1119,-677.5 1125,-683.5 1125,-689.5 1125,-689.5 1125,-786.5 1125,-786.5 1125,-792.5 1119,-798.5 1113,-798.5 1113,-798.5 987,-798.5 987,-798.5 981,-798.5 975,-792.5 975,-786.5 975,-786.5 975,-689.5 975,-689.5 975,-683.5 981,-677.5 987,-677.5"/>
<text text-anchor="middle" x="1050" y="-783.3" font-family="Times,serif" font-size="14.00">Edition</text>
<polyline fill="none" stroke="black" points="975,-775.5 1125,-775.5 "/>
<text text-anchor="start" x="983" y="-760.3" font-family="Times,serif" font-size="14.00">id :integer</text>
<text text-anchor="start" x="983" y="-745.3" font-family="Times,serif" font-size="14.00">name :varchar</text>
<text text-anchor="start" x="983" y="-730.3" font-family="Times,serif" font-size="14.00">start_date :date</text>
<text text-anchor="start" x="983" y="-715.3" font-family="Times,serif" font-size="14.00">end_date :date</text>
<text text-anchor="start" x="983" y="-700.3" font-family="Times,serif" font-size="14.00">created_at :datetime(6)</text>
<text text-anchor="start" x="983" y="-685.3" font-family="Times,serif" font-size="14.00">updated_at :datetime(6)</text>
</g>
<!-- Project&#45;&gt;Edition -->
<g id="edge9" class="edge">
<title>Project&#45;&gt;Edition</title>
<path fill="none" stroke="#27d2df" d="M1113.15,-872.05C1103.09,-850.84 1092.4,-828.32 1082.73,-807.95"/>
<polygon fill="#27d2df" stroke="#27d2df" points="1113.27,-872.29 1113.49,-883.25 1115.41,-876.8 1117.55,-881.32 1117.55,-881.32 1117.55,-881.32 1115.41,-876.8 1121.62,-879.39 1113.27,-872.29 1113.27,-872.29"/>
<polygon fill="#27d2df" stroke="#27d2df" points="1082.65,-807.79 1082.43,-796.82 1080.51,-803.27 1078.36,-798.75 1078.36,-798.75 1078.36,-798.75 1080.51,-803.27 1074.3,-800.68 1082.65,-807.79 1082.65,-807.79"/>
</g>
<!-- Professor -->
<g id="node17" class="node">
<title>Professor</title>
<path fill="none" stroke="black" d="M1367,-515C1367,-515 1493,-515 1493,-515 1499,-515 1505,-521 1505,-527 1505,-527 1505,-594 1505,-594 1505,-600 1499,-606 1493,-606 1493,-606 1367,-606 1367,-606 1361,-606 1355,-600 1355,-594 1355,-594 1355,-527 1355,-527 1355,-521 1361,-515 1367,-515"/>
<text text-anchor="middle" x="1430" y="-590.8" font-family="Times,serif" font-size="14.00">Professor</text>
<polyline fill="none" stroke="black" points="1355,-583 1505,-583 "/>
<text text-anchor="start" x="1363" y="-567.8" font-family="Times,serif" font-size="14.00">id :integer</text>
<text text-anchor="start" x="1363" y="-552.8" font-family="Times,serif" font-size="14.00">department :varchar</text>
<text text-anchor="start" x="1363" y="-537.8" font-family="Times,serif" font-size="14.00">created_at :datetime(6)</text>
<text text-anchor="start" x="1363" y="-522.8" font-family="Times,serif" font-size="14.00">updated_at :datetime(6)</text>
</g>
<!-- Project&#45;&gt;Professor -->
<g id="edge7" class="edge">
<title>Project&#45;&gt;Professor</title>
<path fill="none" stroke="#282634" d="M1146.08,-871.35C1141.2,-786.89 1140.28,-665.07 1172,-632 1199.67,-603.15 1313.36,-627.46 1351,-614 1353.93,-612.95 1356.86,-611.77 1359.77,-610.49"/>
<polygon fill="#282634" stroke="#282634" points="1146.09,-871.47 1142.2,-881.73 1146.39,-876.46 1146.7,-881.45 1146.7,-881.45 1146.7,-881.45 1146.39,-876.46 1151.19,-881.18 1146.09,-871.47 1146.09,-871.47"/>
<polygon fill="#282634" stroke="#282634" points="1359.97,-610.39 1370.93,-610.11 1364.47,-608.22 1368.98,-606.06 1368.98,-606.06 1368.98,-606.06 1364.47,-608.22 1367.03,-602 1359.97,-610.39 1359.97,-610.39"/>
</g>
<!-- CommitteeEvaluation -->
<g id="node20" class="node">
<title>CommitteeEvaluation</title>
<path fill="none" stroke="black" d="M1193,-632.5C1193,-632.5 1319,-632.5 1319,-632.5 1325,-632.5 1331,-638.5 1331,-644.5 1331,-644.5 1331,-831.5 1331,-831.5 1331,-837.5 1325,-843.5 1319,-843.5 1319,-843.5 1193,-843.5 1193,-843.5 1187,-843.5 1181,-837.5 1181,-831.5 1181,-831.5 1181,-644.5 1181,-644.5 1181,-638.5 1187,-632.5 1193,-632.5"/>
<text text-anchor="middle" x="1256" y="-828.3" font-family="Times,serif" font-size="14.00">CommitteeEvaluation</text>
<polyline fill="none" stroke="black" points="1181,-820.5 1331,-820.5 "/>
<text text-anchor="start" x="1189" y="-805.3" font-family="Times,serif" font-size="14.00">ortography :integer</text>
<text text-anchor="start" x="1189" y="-790.3" font-family="Times,serif" font-size="14.00">description :integer</text>
<text text-anchor="start" x="1189" y="-775.3" font-family="Times,serif" font-size="14.00">problem :integer</text>
<text text-anchor="start" x="1189" y="-760.3" font-family="Times,serif" font-size="14.00">methodology :integer</text>
<text text-anchor="start" x="1189" y="-745.3" font-family="Times,serif" font-size="14.00">feasibility :integer</text>
<text text-anchor="start" x="1189" y="-730.3" font-family="Times,serif" font-size="14.00">results :integer</text>
<text text-anchor="start" x="1189" y="-715.3" font-family="Times,serif" font-size="14.00">impact :integer</text>
<text text-anchor="start" x="1189" y="-700.3" font-family="Times,serif" font-size="14.00">score :integer</text>
<text text-anchor="start" x="1189" y="-685.3" font-family="Times,serif" font-size="14.00">project_id :integer</text>
<text text-anchor="start" x="1189" y="-670.3" font-family="Times,serif" font-size="14.00">created_at :datetime(6)</text>
<text text-anchor="start" x="1189" y="-655.3" font-family="Times,serif" font-size="14.00">updated_at :datetime(6)</text>
<text text-anchor="start" x="1189" y="-640.3" font-family="Times,serif" font-size="14.00">id :integer</text>
</g>
<!-- Project&#45;&gt;CommitteeEvaluation -->
<g id="edge10" class="edge">
<title>Project&#45;&gt;CommitteeEvaluation</title>
<path fill="none" stroke="#678337" d="M1192.82,-872.11C1195.79,-865.86 1198.81,-859.49 1201.84,-853.1"/>
<polygon fill="#678337" stroke="#678337" points="1192.73,-872.29 1184.38,-879.39 1190.59,-876.8 1188.45,-881.32 1188.45,-881.32 1188.45,-881.32 1190.59,-876.8 1192.51,-883.25 1192.73,-872.29 1192.73,-872.29"/>
<polygon fill="#678337" stroke="#678337" points="1202,-852.76 1210.36,-845.65 1204.15,-848.24 1206.29,-843.72 1206.29,-843.72 1206.29,-843.72 1204.15,-848.24 1202.23,-841.79 1202,-852.76 1202,-852.76"/>
</g>
<!-- Institution -->
<g id="node23" class="node">
<title>Institution</title>
<path fill="none" stroke="black" d="M1522,-507.5C1522,-507.5 1648,-507.5 1648,-507.5 1654,-507.5 1660,-513.5 1660,-519.5 1660,-519.5 1660,-601.5 1660,-601.5 1660,-607.5 1654,-613.5 1648,-613.5 1648,-613.5 1522,-613.5 1522,-613.5 1516,-613.5 1510,-607.5 1510,-601.5 1510,-601.5 1510,-519.5 1510,-519.5 1510,-513.5 1516,-507.5 1522,-507.5"/>
<text text-anchor="middle" x="1585" y="-598.3" font-family="Times,serif" font-size="14.00">Institution</text>
<polyline fill="none" stroke="black" points="1510,-590.5 1660,-590.5 "/>
<text text-anchor="start" x="1518" y="-575.3" font-family="Times,serif" font-size="14.00">id :integer</text>
<text text-anchor="start" x="1518" y="-560.3" font-family="Times,serif" font-size="14.00">name :varchar</text>
<text text-anchor="start" x="1518" y="-545.3" font-family="Times,serif" font-size="14.00">city :varchar</text>
<text text-anchor="start" x="1518" y="-530.3" font-family="Times,serif" font-size="14.00">created_at :datetime(6)</text>
<text text-anchor="start" x="1518" y="-515.3" font-family="Times,serif" font-size="14.00">updated_at :datetime(6)</text>
</g>
<!-- Project&#45;&gt;Institution -->
<g id="edge8" class="edge">
<title>Project&#45;&gt;Institution</title>
<path fill="none" stroke="#d3a099" d="M1237.53,-924.42C1274.54,-906.37 1315.12,-880.03 1340,-844 1394.39,-765.23 1309.05,-698.4 1378,-632 1417.04,-594.41 1448.54,-629.88 1500.17,-615.66"/>
<polygon fill="#d3a099" stroke="#d3a099" points="1237.24,-924.55 1226.28,-924.76 1232.72,-926.69 1228.2,-928.83 1228.2,-928.83 1228.2,-928.83 1232.72,-926.69 1230.13,-932.9 1237.24,-924.55 1237.24,-924.55"/>
<polygon fill="#d3a099" stroke="#d3a099" points="1500.19,-615.65 1511.1,-616.81 1504.94,-614.09 1509.69,-612.53 1509.69,-612.53 1509.69,-612.53 1504.94,-614.09 1508.29,-608.26 1500.19,-615.65 1500.19,-615.65"/>
</g>
<!-- Abstract -->
<g id="node26" class="node">
<title>Abstract</title>
<path fill="none" stroke="black" d="M1399,-655C1399,-655 1525,-655 1525,-655 1531,-655 1537,-661 1537,-667 1537,-667 1537,-809 1537,-809 1537,-815 1531,-821 1525,-821 1525,-821 1399,-821 1399,-821 1393,-821 1387,-815 1387,-809 1387,-809 1387,-667 1387,-667 1387,-661 1393,-655 1399,-655"/>
<text text-anchor="middle" x="1462" y="-805.8" font-family="Times,serif" font-size="14.00">Abstract</text>
<polyline fill="none" stroke="black" points="1387,-798 1537,-798 "/>
<text text-anchor="start" x="1395" y="-782.8" font-family="Times,serif" font-size="14.00">updated_at :datetime(6)</text>
<text text-anchor="start" x="1395" y="-767.8" font-family="Times,serif" font-size="14.00">problem :text</text>
<text text-anchor="start" x="1395" y="-752.8" font-family="Times,serif" font-size="14.00">methodology :text</text>
<text text-anchor="start" x="1395" y="-737.8" font-family="Times,serif" font-size="14.00">feasibility :text</text>
<text text-anchor="start" x="1395" y="-722.8" font-family="Times,serif" font-size="14.00">results :text</text>
<text text-anchor="start" x="1395" y="-707.8" font-family="Times,serif" font-size="14.00">impact :text</text>
<text text-anchor="start" x="1395" y="-692.8" font-family="Times,serif" font-size="14.00">project_id :integer</text>
<text text-anchor="start" x="1395" y="-677.8" font-family="Times,serif" font-size="14.00">created_at :datetime(6)</text>
<text text-anchor="start" x="1395" y="-662.8" font-family="Times,serif" font-size="14.00">id :integer</text>
</g>
<!-- Project&#45;&gt;Abstract -->
<g id="edge13" class="edge">
<title>Project&#45;&gt;Abstract</title>
<path fill="none" stroke="#627048" d="M1237.72,-932.37C1281.25,-917.36 1333.32,-894.7 1373,-863 1385.06,-853.37 1396.24,-841.7 1406.31,-829.42"/>
<polygon fill="#627048" stroke="#627048" points="1237.48,-932.45 1226.57,-931.38 1232.74,-934.05 1228,-935.64 1228,-935.64 1228,-935.64 1232.74,-934.05 1229.44,-939.91 1237.48,-932.45 1237.48,-932.45"/>
<polygon fill="#627048" stroke="#627048" points="1406.55,-829.11 1416.29,-824.07 1409.66,-825.19 1412.77,-821.28 1412.77,-821.28 1412.77,-821.28 1409.66,-825.19 1409.24,-818.48 1406.55,-829.11 1406.55,-829.11"/>
</g>
<!-- JudgeEvaluation -->
<g id="node27" class="node">
<title>JudgeEvaluation</title>
<path fill="none" stroke="black" d="M1567,-677.5C1567,-677.5 1693,-677.5 1693,-677.5 1699,-677.5 1705,-683.5 1705,-689.5 1705,-689.5 1705,-786.5 1705,-786.5 1705,-792.5 1699,-798.5 1693,-798.5 1693,-798.5 1567,-798.5 1567,-798.5 1561,-798.5 1555,-792.5 1555,-786.5 1555,-786.5 1555,-689.5 1555,-689.5 1555,-683.5 1561,-677.5 1567,-677.5"/>
<text text-anchor="middle" x="1630" y="-783.3" font-family="Times,serif" font-size="14.00">JudgeEvaluation</text>
<polyline fill="none" stroke="black" points="1555,-775.5 1705,-775.5 "/>
<text text-anchor="start" x="1563" y="-760.3" font-family="Times,serif" font-size="14.00">id :integer</text>
<text text-anchor="start" x="1563" y="-745.3" font-family="Times,serif" font-size="14.00">judge_id :integer</text>
<text text-anchor="start" x="1563" y="-730.3" font-family="Times,serif" font-size="14.00">project_id :integer</text>
<text text-anchor="start" x="1563" y="-715.3" font-family="Times,serif" font-size="14.00">score :integer</text>
<text text-anchor="start" x="1563" y="-700.3" font-family="Times,serif" font-size="14.00">created_at :datetime(6)</text>
<text text-anchor="start" x="1563" y="-685.3" font-family="Times,serif" font-size="14.00">updated_at :datetime(6)</text>
</g>
<!-- Project&#45;&gt;JudgeEvaluation -->
<g id="edge12" class="edge">
<title>Project&#45;&gt;JudgeEvaluation</title>
<path fill="none" stroke="#9bd169" d="M1238.24,-946.97C1322.38,-934.72 1451.76,-906.67 1546,-844 1561.01,-834.02 1574.6,-820.51 1586.27,-806.51"/>
<polygon fill="#9bd169" stroke="#9bd169" points="1238.11,-946.99 1227.58,-943.93 1233.16,-947.69 1228.2,-948.39 1228.2,-948.39 1228.2,-948.39 1233.16,-947.69 1228.83,-952.84 1238.11,-946.99 1238.11,-946.99"/>
<polygon fill="#9bd169" stroke="#9bd169" points="1586.29,-806.49 1596.06,-801.52 1589.42,-802.59 1592.55,-798.7 1592.55,-798.7 1592.55,-798.7 1589.42,-802.59 1589.05,-795.88 1586.29,-806.49 1586.29,-806.49"/>
</g>
<!-- Student&#45;&gt;User -->
<g id="edge15" class="edge">
<title>Student&#45;&gt;User</title>
<path fill="none" stroke="#87d261" d="M77.4,-497.08C82.59,-453.8 96.92,-398.5 135,-367 237.02,-282.62 1142.94,-225.97 1465,-208.34"/>
<polygon fill="#87d261" stroke="#87d261" points="77.38,-497.29 71.85,-506.76 76.85,-502.26 76.32,-507.23 76.32,-507.23 76.32,-507.23 76.85,-502.26 80.8,-507.71 77.38,-497.29 77.38,-497.29"/>
<polygon fill="#87d261" stroke="#87d261" points="1465.3,-208.33 1475.53,-212.28 1470.29,-208.06 1475.28,-207.78 1475.28,-207.78 1475.28,-207.78 1470.29,-208.06 1475.04,-203.29 1465.3,-208.33 1465.3,-208.33"/>
</g>
<!-- Comment -->
<g id="node21" class="node">
<title>Comment</title>
<path fill="none" stroke="black" d="M156,-367.5C156,-367.5 296,-367.5 296,-367.5 302,-367.5 308,-373.5 308,-379.5 308,-379.5 308,-476.5 308,-476.5 308,-482.5 302,-488.5 296,-488.5 296,-488.5 156,-488.5 156,-488.5 150,-488.5 144,-482.5 144,-476.5 144,-476.5 144,-379.5 144,-379.5 144,-373.5 150,-367.5 156,-367.5"/>
<text text-anchor="middle" x="226" y="-473.3" font-family="Times,serif" font-size="14.00">Comment</text>
<polyline fill="none" stroke="black" points="144,-465.5 308,-465.5 "/>
<text text-anchor="start" x="152" y="-450.3" font-family="Times,serif" font-size="14.00">id :integer</text>
<text text-anchor="start" x="152" y="-435.3" font-family="Times,serif" font-size="14.00">body :text</text>
<text text-anchor="start" x="152" y="-420.3" font-family="Times,serif" font-size="14.00">virtual_sample_id :integer</text>
<text text-anchor="start" x="152" y="-405.3" font-family="Times,serif" font-size="14.00">user_id :integer</text>
<text text-anchor="start" x="152" y="-390.3" font-family="Times,serif" font-size="14.00">created_at :datetime(6)</text>
<text text-anchor="start" x="152" y="-375.3" font-family="Times,serif" font-size="14.00">updated_at :datetime(6)</text>
</g>
<!-- VirtualSample&#45;&gt;Comment -->
<g id="edge24" class="edge">
<title>VirtualSample&#45;&gt;Comment</title>
<path fill="none" stroke="#7f460a" d="M596.96,-704.12C532.15,-680.39 440.19,-649.56 357,-632 319.18,-624.02 209.88,-642.71 184,-614 155.73,-582.63 166.31,-536.28 183.92,-497.82"/>
<polygon fill="#7f460a" stroke="#7f460a" points="597.33,-704.26 605.16,-711.94 602.02,-705.99 606.72,-707.71 606.72,-707.71 606.72,-707.71 602.02,-705.99 608.27,-703.49 597.33,-704.26 597.33,-704.26"/>
<polygon fill="#7f460a" stroke="#7f460a" points="183.95,-497.75 192.33,-490.67 186.12,-493.24 188.28,-488.73 188.28,-488.73 188.28,-488.73 186.12,-493.24 184.22,-486.78 183.95,-497.75 183.95,-497.75"/>
</g>
<!-- ActiveStorage::Attachment -->
<g id="node29" class="node">
<title>ActiveStorage::Attachment</title>
<ellipse fill="none" stroke="black" cx="449" cy="-428" rx="110.48" ry="18"/>
<text text-anchor="middle" x="449" y="-424.3" font-family="Times,serif" font-size="14.00">ActiveStorage::Attachment</text>
</g>
<!-- VirtualSample&#45;&gt;ActiveStorage::Attachment -->
<g id="edge16" class="edge">
<title>VirtualSample&#45;&gt;ActiveStorage::Attachment</title>
<path fill="none" stroke="#8385b5" d="M597.23,-704.47C532.38,-680.85 440.24,-650 357,-632 322.46,-624.53 222.53,-640.36 199,-614 183.17,-596.26 183.51,-525.04 199,-507 216.28,-486.88 291.57,-496.56 317,-489 349.56,-479.32 384.46,-463.18 410.2,-450.07"/>
<polygon fill="#8385b5" stroke="#8385b5" points="597.6,-704.61 605.45,-712.27 602.3,-706.33 606.99,-708.05 606.99,-708.05 606.99,-708.05 602.3,-706.33 608.54,-703.82 597.6,-704.61 597.6,-704.61"/>
<polygon fill="#8385b5" stroke="#8385b5" points="410.36,-449.99 421.31,-449.4 414.8,-447.69 419.25,-445.4 419.25,-445.4 419.25,-445.4 414.8,-447.69 417.18,-441.4 410.36,-449.99 410.36,-449.99"/>
<text text-anchor="middle" x="266" y="-556.8" font-family="Times,serif" font-size="14.00">icon_image_attachment</text>
</g>
<!-- VirtualSample&#45;&gt;ActiveStorage::Attachment -->
<g id="edge18" class="edge">
<title>VirtualSample&#45;&gt;ActiveStorage::Attachment</title>
<path fill="none" stroke="#70e710" d="M596.55,-730.94C519.32,-720.4 409.75,-691.73 356,-614 328.95,-574.89 335.9,-550.1 356,-507 367.02,-483.38 389.1,-464.37 408.98,-451.04"/>
<polygon fill="#70e710" stroke="#70e710" points="596.83,-730.97 606.17,-736.71 601.79,-731.61 606.75,-732.25 606.75,-732.25 606.75,-732.25 601.79,-731.61 607.32,-727.78 596.83,-730.97 596.83,-730.97"/>
<polygon fill="#70e710" stroke="#70e710" points="409.21,-450.89 420.05,-449.28 413.42,-448.19 417.62,-445.49 417.62,-445.49 417.62,-445.49 413.42,-448.19 415.19,-441.71 409.21,-450.89 409.21,-450.89"/>
<text text-anchor="middle" x="418.5" y="-556.8" font-family="Times,serif" font-size="14.00">about_file_attachment</text>
</g>
<!-- VirtualSample&#45;&gt;ActiveStorage::Attachment -->
<g id="edge20" class="edge">
<title>VirtualSample&#45;&gt;ActiveStorage::Attachment</title>
<path fill="none" stroke="#422ac7" d="M597.73,-696.73C563.75,-676.44 527.18,-648.69 504,-614 476.98,-573.55 495.4,-553.46 481,-507 475.53,-489.34 467.66,-470.11 461.1,-455.17"/>
<polygon fill="#422ac7" stroke="#422ac7" points="598.13,-696.96 604.51,-705.88 602.45,-699.48 606.77,-701.99 606.77,-701.99 606.77,-701.99 602.45,-699.48 609.03,-698.1 598.13,-696.96 598.13,-696.96"/>
<polygon fill="#422ac7" stroke="#422ac7" points="461.09,-455.16 461.12,-444.19 459.05,-450.59 457.01,-446.03 457.01,-446.03 457.01,-446.03 459.05,-450.59 452.91,-447.86 461.09,-455.16 461.09,-455.16"/>
<text text-anchor="middle" x="566.5" y="-556.8" font-family="Times,serif" font-size="14.00">video_file_attachment</text>
</g>
<!-- VirtualSample&#45;&gt;ActiveStorage::Attachment -->
<g id="edge22" class="edge">
<title>VirtualSample&#45;&gt;ActiveStorage::Attachment</title>
<path fill="none" stroke="#78b966" d="M663.7,-675.23C658.26,-655.74 652.54,-634.06 648,-614 637.33,-566.89 658.95,-544.89 629,-507 603.99,-475.36 563.61,-456.3 527.42,-444.95"/>
<polygon fill="#78b966" stroke="#78b966" points="663.72,-675.28 662.1,-686.13 665.08,-680.09 666.43,-684.9 666.43,-684.9 666.43,-684.9 665.08,-680.09 670.76,-683.68 663.72,-675.28 663.72,-675.28"/>
<polygon fill="#78b966" stroke="#78b966" points="527.41,-444.95 519.12,-437.78 522.62,-443.52 517.83,-442.09 517.83,-442.09 517.83,-442.09 522.62,-443.52 516.55,-446.41 527.41,-444.95 527.41,-444.95"/>
<text text-anchor="middle" x="705" y="-556.8" font-family="Times,serif" font-size="14.00">images_attachments</text>
</g>
<!-- ActiveStorage::Blob -->
<g id="node30" class="node">
<title>ActiveStorage::Blob</title>
<ellipse fill="none" stroke="black" cx="910" cy="-428" rx="85.59" ry="18"/>
<text text-anchor="middle" x="910" y="-424.3" font-family="Times,serif" font-size="14.00">ActiveStorage::Blob</text>
</g>
<!-- VirtualSample&#45;&gt;ActiveStorage::Blob -->
<g id="edge17" class="edge">
<title>VirtualSample&#45;&gt;ActiveStorage::Blob</title>
<path fill="none" stroke="#b50bce" d="M730.12,-676.54C743.41,-657.43 756.72,-635.63 766,-614 785.19,-569.3 761.34,-547.01 789,-507 807.04,-480.91 836.93,-461.52 862.49,-448.6"/>
<polygon fill="#b50bce" stroke="#b50bce" points="730.02,-676.69 720.57,-682.24 727.13,-680.76 724.24,-684.84 724.24,-684.84 724.24,-684.84 727.13,-680.76 727.91,-687.45 730.02,-676.69 730.02,-676.69"/>
<polygon fill="#b50bce" stroke="#b50bce" points="862.69,-448.5 873.65,-448.17 867.18,-446.31 871.68,-444.13 871.68,-444.13 871.68,-444.13 867.18,-446.31 869.71,-440.08 862.69,-448.5 862.69,-448.5"/>
<text text-anchor="middle" x="838" y="-556.8" font-family="Times,serif" font-size="14.00">icon_image_blob</text>
</g>
<!-- VirtualSample&#45;&gt;ActiveStorage::Blob -->
<g id="edge19" class="edge">
<title>VirtualSample&#45;&gt;ActiveStorage::Blob</title>
<path fill="none" stroke="#4b7059" d="M735.66,-677.46C753.89,-660.43 775.4,-643.41 798,-632 834.02,-613.81 859.57,-643.6 887,-614 907.72,-591.64 910.4,-502 910.37,-456.21"/>
<polygon fill="#4b7059" stroke="#4b7059" points="735.28,-677.82 724.94,-681.49 731.67,-681.28 728.06,-684.74 728.06,-684.74 728.06,-684.74 731.67,-681.28 731.17,-687.99 735.28,-677.82 735.28,-677.82"/>
<polygon fill="#4b7059" stroke="#4b7059" points="910.37,-456.1 914.82,-446.08 910.35,-451.1 910.32,-446.1 910.32,-446.1 910.32,-446.1 910.35,-451.1 905.82,-446.13 910.37,-456.1 910.37,-456.1"/>
<text text-anchor="middle" x="954" y="-556.8" font-family="Times,serif" font-size="14.00">about_file_blob</text>
</g>
<!-- VirtualSample&#45;&gt;ActiveStorage::Blob -->
<g id="edge21" class="edge">
<title>VirtualSample&#45;&gt;ActiveStorage::Blob</title>
<path fill="none" stroke="#5ad887" d="M732.92,-677.85C751.52,-660.08 773.95,-642.53 798,-632 838.88,-614.1 967.89,-646.94 998,-614 1030.08,-578.9 1017.51,-550.37 998,-507 987.42,-483.48 965.86,-464.19 946.73,-450.67"/>
<polygon fill="#5ad887" stroke="#5ad887" points="732.85,-677.91 722.56,-681.71 729.28,-681.42 725.72,-684.92 725.72,-684.92 725.72,-684.92 729.28,-681.42 728.87,-688.13 732.85,-677.91 732.85,-677.91"/>
<polygon fill="#5ad887" stroke="#5ad887" points="946.71,-450.66 940.96,-441.32 942.58,-447.85 938.44,-445.05 938.44,-445.05 938.44,-445.05 942.58,-447.85 935.91,-448.78 946.71,-450.66 946.71,-450.66"/>
<text text-anchor="middle" x="1062" y="-556.8" font-family="Times,serif" font-size="14.00">video_file_blob</text>
</g>
<!-- VirtualSample&#45;&gt;ActiveStorage::Blob -->
<g id="edge23" class="edge">
<title>VirtualSample&#45;&gt;ActiveStorage::Blob</title>
<path fill="none" stroke="#9a9f72" d="M732.47,-677.64C751.11,-659.76 773.67,-642.19 798,-632 829.92,-618.62 1085.24,-639.17 1109,-614 1125.32,-596.71 1124.28,-525.22 1109,-507 1079.41,-471.73 1050.01,-505.4 1007,-489 982.88,-479.8 958.17,-464.41 939.73,-451.53"/>
<polygon fill="#9a9f72" stroke="#9a9f72" points="732.38,-677.74 722.1,-681.56 728.82,-681.25 725.26,-684.77 725.26,-684.77 725.26,-684.77 728.82,-681.25 728.42,-687.97 732.38,-677.74 732.38,-677.74"/>
<polygon fill="#9a9f72" stroke="#9a9f72" points="939.61,-451.44 934.08,-441.96 935.54,-448.53 931.47,-445.62 931.47,-445.62 931.47,-445.62 935.54,-448.53 928.85,-449.29 939.61,-451.44 939.61,-451.44"/>
<text text-anchor="middle" x="1159.5" y="-556.8" font-family="Times,serif" font-size="14.00">images_blobs</text>
</g>
<!-- Judge -->
<g id="node12" class="node">
<title>Judge</title>
<path fill="none" stroke="black" d="M1619,-881.5C1619,-881.5 1745,-881.5 1745,-881.5 1751,-881.5 1757,-887.5 1757,-893.5 1757,-893.5 1757,-1020.5 1757,-1020.5 1757,-1026.5 1751,-1032.5 1745,-1032.5 1745,-1032.5 1619,-1032.5 1619,-1032.5 1613,-1032.5 1607,-1026.5 1607,-1020.5 1607,-1020.5 1607,-893.5 1607,-893.5 1607,-887.5 1613,-881.5 1619,-881.5"/>
<text text-anchor="middle" x="1682" y="-1017.3" font-family="Times,serif" font-size="14.00">Judge</text>
<polyline fill="none" stroke="black" points="1607,-1009.5 1757,-1009.5 "/>
<text text-anchor="start" x="1615" y="-994.3" font-family="Times,serif" font-size="14.00">updated_at :datetime(6)</text>
<text text-anchor="start" x="1615" y="-979.3" font-family="Times,serif" font-size="14.00">company :varchar</text>
<text text-anchor="start" x="1615" y="-964.3" font-family="Times,serif" font-size="14.00">department :varchar</text>
<text text-anchor="start" x="1615" y="-949.3" font-family="Times,serif" font-size="14.00">contact_name :varchar</text>
<text text-anchor="start" x="1615" y="-934.3" font-family="Times,serif" font-size="14.00">contact_email :varchar</text>
<text text-anchor="start" x="1615" y="-919.3" font-family="Times,serif" font-size="14.00">has_tablet :boolean</text>
<text text-anchor="start" x="1615" y="-904.3" font-family="Times,serif" font-size="14.00">created_at :datetime(6)</text>
<text text-anchor="start" x="1615" y="-889.3" font-family="Times,serif" font-size="14.00">id :integer</text>
</g>
<!-- Judge&#45;&gt;JudgeEvaluation -->
<g id="edge26" class="edge">
<title>Judge&#45;&gt;JudgeEvaluation</title>
<path fill="none" stroke="#2951b1" d="M1661.73,-871.4C1656.75,-850.64 1651.48,-828.65 1646.7,-808.69"/>
<polygon fill="#2951b1" stroke="#2951b1" points="1661.77,-871.6 1659.73,-882.37 1662.94,-876.46 1664.1,-881.32 1664.1,-881.32 1664.1,-881.32 1662.94,-876.46 1668.48,-880.27 1661.77,-871.6 1661.77,-871.6"/>
<polygon fill="#2951b1" stroke="#2951b1" points="1646.65,-808.48 1648.69,-797.71 1645.48,-803.62 1644.32,-798.75 1644.32,-798.75 1644.32,-798.75 1645.48,-803.62 1639.94,-799.8 1646.65,-808.48 1646.65,-808.48"/>
</g>
<!-- Judge&#45;&gt;User -->
<g id="edge25" class="edge">
<title>Judge&#45;&gt;User</title>
<path fill="none" stroke="#abf1a2" d="M1708.84,-871.41C1710.95,-862.23 1712.74,-852.97 1714,-844 1743.4,-634.05 1785.78,-566.48 1714,-367 1707.38,-348.59 1697.7,-330.78 1686.51,-314.1"/>
<polygon fill="#abf1a2" stroke="#abf1a2" points="1708.79,-871.59 1702.06,-880.25 1707.61,-876.45 1706.44,-881.31 1706.44,-881.31 1706.44,-881.31 1707.61,-876.45 1710.81,-882.37 1708.79,-871.59 1708.79,-871.59"/>
<polygon fill="#abf1a2" stroke="#abf1a2" points="1686.23,-313.7 1684.23,-302.92 1683.38,-309.59 1680.53,-305.48 1680.53,-305.48 1680.53,-305.48 1683.38,-309.59 1676.83,-308.05 1686.23,-313.7 1686.23,-313.7"/>
</g>
<!-- CommitteeMember -->
<g id="node13" class="node">
<title>CommitteeMember</title>
<path fill="none" stroke="black" d="M1773,-390C1773,-390 1899,-390 1899,-390 1905,-390 1911,-396 1911,-402 1911,-402 1911,-454 1911,-454 1911,-460 1905,-466 1899,-466 1899,-466 1773,-466 1773,-466 1767,-466 1761,-460 1761,-454 1761,-454 1761,-402 1761,-402 1761,-396 1767,-390 1773,-390"/>
<text text-anchor="middle" x="1836" y="-450.8" font-family="Times,serif" font-size="14.00">CommitteeMember</text>
<polyline fill="none" stroke="black" points="1761,-443 1911,-443 "/>
<text text-anchor="start" x="1769" y="-427.8" font-family="Times,serif" font-size="14.00">id :integer</text>
<text text-anchor="start" x="1769" y="-412.8" font-family="Times,serif" font-size="14.00">created_at :datetime(6)</text>
<text text-anchor="start" x="1769" y="-397.8" font-family="Times,serif" font-size="14.00">updated_at :datetime(6)</text>
</g>
<!-- CommitteeMember&#45;&gt;User -->
<g id="edge27" class="edge">
<title>CommitteeMember&#45;&gt;User</title>
<path fill="none" stroke="#b0c8d8" d="M1786.96,-383.24C1774,-371.73 1760,-359.37 1747,-348 1728.09,-331.47 1707.9,-313.97 1688.31,-297.05"/>
<polygon fill="#b0c8d8" stroke="#b0c8d8" points="1786.98,-383.25 1791.47,-393.26 1790.72,-386.57 1794.46,-389.89 1794.46,-389.89 1794.46,-389.89 1790.72,-386.57 1797.45,-386.53 1786.98,-383.25 1786.98,-383.25"/>
<polygon fill="#b0c8d8" stroke="#b0c8d8" points="1688.11,-296.88 1683.48,-286.94 1684.33,-293.62 1680.54,-290.35 1680.54,-290.35 1680.54,-290.35 1684.33,-293.62 1677.6,-293.76 1688.11,-296.88 1688.11,-296.88"/>
</g>
<!-- Administrator -->
<g id="node14" class="node">
<title>Administrator</title>
<path fill="none" stroke="black" d="M1941,-390C1941,-390 2067,-390 2067,-390 2073,-390 2079,-396 2079,-402 2079,-402 2079,-454 2079,-454 2079,-460 2073,-466 2067,-466 2067,-466 1941,-466 1941,-466 1935,-466 1929,-460 1929,-454 1929,-454 1929,-402 1929,-402 1929,-396 1935,-390 1941,-390"/>
<text text-anchor="middle" x="2004" y="-450.8" font-family="Times,serif" font-size="14.00">Administrator</text>
<polyline fill="none" stroke="black" points="1929,-443 2079,-443 "/>
<text text-anchor="start" x="1937" y="-427.8" font-family="Times,serif" font-size="14.00">id :integer</text>
<text text-anchor="start" x="1937" y="-412.8" font-family="Times,serif" font-size="14.00">created_at :datetime(6)</text>
<text text-anchor="start" x="1937" y="-397.8" font-family="Times,serif" font-size="14.00">updated_at :datetime(6)</text>
</g>
<!-- Administrator&#45;&gt;User -->
<g id="edge28" class="edge">
<title>Administrator&#45;&gt;User</title>
<path fill="none" stroke="#dab9bc" d="M1946.5,-383.98C1937.78,-378.03 1928.77,-372.19 1920,-367 1845.81,-323.1 1758.11,-281.1 1690.1,-250.53"/>
<polygon fill="#dab9bc" stroke="#dab9bc" points="1946.53,-384 1952.19,-393.4 1950.64,-386.85 1954.75,-389.7 1954.75,-389.7 1954.75,-389.7 1950.64,-386.85 1957.32,-386 1946.53,-384 1946.53,-384"/>
<polygon fill="#dab9bc" stroke="#dab9bc" points="1689.76,-250.38 1682.48,-242.19 1685.2,-248.34 1680.64,-246.29 1680.64,-246.29 1680.64,-246.29 1685.2,-248.34 1678.8,-250.4 1689.76,-250.38 1689.76,-250.38"/>
</g>
<!-- StaffMember -->
<g id="node15" class="node">
<title>StaffMember</title>
<path fill="none" stroke="black" d="M2109,-390C2109,-390 2235,-390 2235,-390 2241,-390 2247,-396 2247,-402 2247,-402 2247,-454 2247,-454 2247,-460 2241,-466 2235,-466 2235,-466 2109,-466 2109,-466 2103,-466 2097,-460 2097,-454 2097,-454 2097,-402 2097,-402 2097,-396 2103,-390 2109,-390"/>
<text text-anchor="middle" x="2172" y="-450.8" font-family="Times,serif" font-size="14.00">StaffMember</text>
<polyline fill="none" stroke="black" points="2097,-443 2247,-443 "/>
<text text-anchor="start" x="2105" y="-427.8" font-family="Times,serif" font-size="14.00">id :integer</text>
<text text-anchor="start" x="2105" y="-412.8" font-family="Times,serif" font-size="14.00">created_at :datetime(6)</text>
<text text-anchor="start" x="2105" y="-397.8" font-family="Times,serif" font-size="14.00">updated_at :datetime(6)</text>
</g>
<!-- StaffMember&#45;&gt;User -->
<g id="edge29" class="edge">
<title>StaffMember&#45;&gt;User</title>
<path fill="none" stroke="#cf6f77" d="M2116.8,-383.99C2107.48,-377.79 2097.68,-371.87 2088,-367 1958.05,-301.62 1796.57,-254.73 1690.56,-228.15"/>
<polygon fill="#cf6f77" stroke="#cf6f77" points="2116.95,-384.09 2122.66,-393.45 2121.07,-386.92 2125.2,-389.74 2125.2,-389.74 2125.2,-389.74 2121.07,-386.92 2127.74,-386.03 2116.95,-384.09 2116.95,-384.09"/>
<polygon fill="#cf6f77" stroke="#cf6f77" points="1690.5,-228.13 1681.89,-221.35 1685.65,-226.92 1680.8,-225.71 1680.8,-225.71 1680.8,-225.71 1685.65,-226.92 1679.71,-230.08 1690.5,-228.13 1690.5,-228.13"/>
</g>
<!-- Question -->
<g id="node18" class="node">
<title>Question</title>
<path fill="none" stroke="black" d="M1028,-367.5C1028,-367.5 1154,-367.5 1154,-367.5 1160,-367.5 1166,-373.5 1166,-379.5 1166,-379.5 1166,-476.5 1166,-476.5 1166,-482.5 1160,-488.5 1154,-488.5 1154,-488.5 1028,-488.5 1028,-488.5 1022,-488.5 1016,-482.5 1016,-476.5 1016,-476.5 1016,-379.5 1016,-379.5 1016,-373.5 1022,-367.5 1028,-367.5"/>
<text text-anchor="middle" x="1091" y="-473.3" font-family="Times,serif" font-size="14.00">Question</text>
<polyline fill="none" stroke="black" points="1016,-465.5 1166,-465.5 "/>
<text text-anchor="start" x="1024" y="-450.3" font-family="Times,serif" font-size="14.00">id :integer</text>
<text text-anchor="start" x="1024" y="-435.3" font-family="Times,serif" font-size="14.00">title :varchar</text>
<text text-anchor="start" x="1024" y="-420.3" font-family="Times,serif" font-size="14.00">description :text</text>
<text text-anchor="start" x="1024" y="-405.3" font-family="Times,serif" font-size="14.00">edition_id :integer</text>
<text text-anchor="start" x="1024" y="-390.3" font-family="Times,serif" font-size="14.00">created_at :datetime(6)</text>
<text text-anchor="start" x="1024" y="-375.3" font-family="Times,serif" font-size="14.00">updated_at :datetime(6)</text>
</g>
<!-- Edition&#45;&gt;Question -->
<g id="edge31" class="edge">
<title>Edition&#45;&gt;Question</title>
<path fill="none" stroke="#8a0694" d="M1096.52,-669.45C1108.91,-655.38 1123.28,-641.85 1139,-632 1166.22,-614.95 1189.32,-639.39 1209,-614 1238.14,-576.42 1233.53,-547.74 1209,-507 1200.18,-492.35 1189.54,-497.99 1175,-489 1174.91,-488.94 1174.82,-488.89 1174.73,-488.83"/>
<polygon fill="#8a0694" stroke="#8a0694" points="1096.32,-669.69 1086.41,-674.39 1093.08,-673.5 1089.84,-677.31 1089.84,-677.31 1089.84,-677.31 1093.08,-673.5 1093.27,-680.22 1096.32,-669.69 1096.32,-669.69"/>
<polygon fill="#8a0694" stroke="#8a0694" points="1174.68,-488.8 1168.64,-479.65 1170.46,-486.13 1166.23,-483.45 1166.23,-483.45 1166.23,-483.45 1170.46,-486.13 1163.83,-487.26 1174.68,-488.8 1174.68,-488.8"/>
</g>
<!-- Phase -->
<g id="node25" class="node">
<title>Phase</title>
<path fill="none" stroke="black" d="M1196.5,-375C1196.5,-375 1299.5,-375 1299.5,-375 1305.5,-375 1311.5,-381 1311.5,-387 1311.5,-387 1311.5,-469 1311.5,-469 1311.5,-475 1305.5,-481 1299.5,-481 1299.5,-481 1196.5,-481 1196.5,-481 1190.5,-481 1184.5,-475 1184.5,-469 1184.5,-469 1184.5,-387 1184.5,-387 1184.5,-381 1190.5,-375 1196.5,-375"/>
<text text-anchor="middle" x="1248" y="-465.8" font-family="Times,serif" font-size="14.00">Phase</text>
<polyline fill="none" stroke="black" points="1184.5,-458 1311.5,-458 "/>
<text text-anchor="start" x="1192.5" y="-442.8" font-family="Times,serif" font-size="14.00">id :integer</text>
<text text-anchor="start" x="1192.5" y="-427.8" font-family="Times,serif" font-size="14.00">name :text</text>
<text text-anchor="start" x="1192.5" y="-412.8" font-family="Times,serif" font-size="14.00">start_date :datetime</text>
<text text-anchor="start" x="1192.5" y="-397.8" font-family="Times,serif" font-size="14.00">end_date :datetime</text>
<text text-anchor="start" x="1192.5" y="-382.8" font-family="Times,serif" font-size="14.00">edition_id :integer</text>
</g>
<!-- Edition&#45;&gt;Phase -->
<g id="edge32" class="edge">
<title>Edition&#45;&gt;Phase</title>
<path fill="none" stroke="#0f06ba" d="M1095.46,-669.39C1108.01,-655.1 1122.71,-641.49 1139,-632 1176.13,-610.37 1205.36,-646.04 1234,-614 1263.23,-581.31 1265.33,-531.06 1260.89,-491.18"/>
<polygon fill="#0f06ba" stroke="#0f06ba" points="1095.17,-669.74 1085.28,-674.48 1091.94,-673.56 1088.72,-677.38 1088.72,-677.38 1088.72,-677.38 1091.94,-673.56 1092.16,-680.29 1095.17,-669.74 1095.17,-669.74"/>
<polygon fill="#0f06ba" stroke="#0f06ba" points="1260.86,-490.94 1264.06,-480.45 1260.22,-485.98 1259.59,-481.02 1259.59,-481.02 1259.59,-481.02 1260.22,-485.98 1255.13,-481.59 1260.86,-490.94 1260.86,-490.94"/>
</g>
<!-- Edition&#45;&gt;User -->
<g id="edge30" class="edge">
<title>Edition&#45;&gt;User</title>
<path fill="none" stroke="#e666db" d="M1095.05,-669.76C1107.9,-655.16 1123.08,-641.33 1140,-632 1188.39,-605.33 1215.37,-642 1263,-614 1270.61,-609.53 1387.21,-455.97 1476.35,-337.75"/>
<polygon fill="#e666db" stroke="#e666db" points="1095,-669.81 1085.11,-674.53 1091.77,-673.62 1088.54,-677.44 1088.54,-677.44 1088.54,-677.44 1091.77,-673.62 1091.97,-680.35 1095,-669.81 1095,-669.81"/>
<polygon fill="#e666db" stroke="#e666db" points="1476.42,-337.65 1486.04,-332.37 1479.43,-333.66 1482.44,-329.66 1482.44,-329.66 1482.44,-329.66 1479.43,-333.66 1478.85,-326.95 1476.42,-337.65 1476.42,-337.65"/>
</g>
<!-- Professor&#45;&gt;User -->
<g id="edge33" class="edge">
<title>Professor&#45;&gt;User</title>
<path fill="none" stroke="#d2612e" d="M1452.44,-505.36C1470.74,-461.22 1497.41,-396.9 1521.46,-338.88"/>
<polygon fill="#d2612e" stroke="#d2612e" points="1452.42,-505.41 1444.44,-512.92 1450.51,-510.03 1448.59,-514.65 1448.59,-514.65 1448.59,-514.65 1450.51,-510.03 1452.75,-516.37 1452.42,-505.41 1452.42,-505.41"/>
<polygon fill="#d2612e" stroke="#d2612e" points="1521.47,-338.86 1529.45,-331.35 1523.38,-334.25 1525.3,-329.63 1525.3,-329.63 1525.3,-329.63 1523.38,-334.25 1521.14,-327.9 1521.47,-338.86 1521.47,-338.86"/>
</g>
<!-- ProjectArea -->
<g id="node19" class="node">
<title>ProjectArea</title>
<path fill="none" stroke="black" d="M1594,-1138C1594,-1138 1720,-1138 1720,-1138 1726,-1138 1732,-1144 1732,-1150 1732,-1150 1732,-1217 1732,-1217 1732,-1223 1726,-1229 1720,-1229 1720,-1229 1594,-1229 1594,-1229 1588,-1229 1582,-1223 1582,-1217 1582,-1217 1582,-1150 1582,-1150 1582,-1144 1588,-1138 1594,-1138"/>
<text text-anchor="middle" x="1657" y="-1213.8" font-family="Times,serif" font-size="14.00">ProjectArea</text>
<polyline fill="none" stroke="black" points="1582,-1206 1732,-1206 "/>
<text text-anchor="start" x="1590" y="-1190.8" font-family="Times,serif" font-size="14.00">id :integer</text>
<text text-anchor="start" x="1590" y="-1175.8" font-family="Times,serif" font-size="14.00">name :varchar</text>
<text text-anchor="start" x="1590" y="-1160.8" font-family="Times,serif" font-size="14.00">created_at :datetime(6)</text>
<text text-anchor="start" x="1590" y="-1145.8" font-family="Times,serif" font-size="14.00">updated_at :datetime(6)</text>
</g>
<!-- Comment&#45;&gt;User -->
<g id="edge34" class="edge">
<title>Comment&#45;&gt;User</title>
<path fill="none" stroke="#f9cafd" d="M317.3,-371.8C321.53,-370.05 325.78,-368.43 330,-367 732.03,-230.57 1242.56,-206.47 1465.41,-202.78"/>
<polygon fill="#f9cafd" stroke="#f9cafd" points="317.24,-371.83 306.27,-371.72 312.66,-373.83 308.08,-375.84 308.08,-375.84 308.08,-375.84 312.66,-373.83 309.88,-379.96 317.24,-371.83 317.24,-371.83"/>
<polygon fill="#f9cafd" stroke="#f9cafd" points="1465.48,-202.78 1475.55,-207.13 1470.48,-202.7 1475.48,-202.63 1475.48,-202.63 1475.48,-202.63 1470.48,-202.7 1475.41,-198.13 1465.48,-202.78 1465.48,-202.78"/>
</g>
<!-- Course -->
<g id="node22" class="node">
<title>Course</title>
<path fill="none" stroke="black" d="M1762,-1130.5C1762,-1130.5 1888,-1130.5 1888,-1130.5 1894,-1130.5 1900,-1136.5 1900,-1142.5 1900,-1142.5 1900,-1224.5 1900,-1224.5 1900,-1230.5 1894,-1236.5 1888,-1236.5 1888,-1236.5 1762,-1236.5 1762,-1236.5 1756,-1236.5 1750,-1230.5 1750,-1224.5 1750,-1224.5 1750,-1142.5 1750,-1142.5 1750,-1136.5 1756,-1130.5 1762,-1130.5"/>
<text text-anchor="middle" x="1825" y="-1221.3" font-family="Times,serif" font-size="14.00">Course</text>
<polyline fill="none" stroke="black" points="1750,-1213.5 1900,-1213.5 "/>
<text text-anchor="start" x="1758" y="-1198.3" font-family="Times,serif" font-size="14.00">id :integer</text>
<text text-anchor="start" x="1758" y="-1183.3" font-family="Times,serif" font-size="14.00">name :varchar</text>
<text text-anchor="start" x="1758" y="-1168.3" font-family="Times,serif" font-size="14.00">code :varchar</text>
<text text-anchor="start" x="1758" y="-1153.3" font-family="Times,serif" font-size="14.00">created_at :datetime(6)</text>
<text text-anchor="start" x="1758" y="-1138.3" font-family="Times,serif" font-size="14.00">updated_at :datetime(6)</text>
</g>
<!-- Institution&#45;&gt;User -->
<g id="edge35" class="edge">
<title>Institution&#45;&gt;User</title>
<path fill="none" stroke="#72d1f9" d="M1548.71,-497.86C1547.68,-494.91 1546.76,-491.95 1546,-489 1533.65,-441.16 1535.58,-387.6 1542.62,-339.86"/>
<polygon fill="#72d1f9" stroke="#72d1f9" points="1548.73,-497.89 1548.21,-508.84 1550.56,-502.54 1552.4,-507.19 1552.4,-507.19 1552.4,-507.19 1550.56,-502.54 1556.58,-505.54 1548.73,-497.89 1548.73,-497.89"/>
<polygon fill="#72d1f9" stroke="#72d1f9" points="1542.66,-339.65 1548.64,-330.46 1543.43,-334.71 1544.2,-329.77 1544.2,-329.77 1544.2,-329.77 1543.43,-334.71 1539.75,-329.07 1542.66,-339.65 1542.66,-339.65"/>
</g>
<!-- ApplicationRecord -->
<g id="node24" class="node">
<title>ApplicationRecord</title>
<ellipse fill="none" stroke="black" cx="1998" cy="-1183.5" rx="79.89" ry="18"/>
<text text-anchor="middle" x="1998" y="-1179.8" font-family="Times,serif" font-size="14.00">ApplicationRecord</text>
</g>
<!-- Userable -->
<g id="node31" class="node">
<title>Userable</title>
<ellipse fill="none" stroke="black" cx="1578" cy="-18" rx="42.79" ry="18"/>
<text text-anchor="middle" x="1578" y="-14.3" font-family="Times,serif" font-size="14.00">Userable</text>
</g>
<!-- User&#45;&gt;Userable -->
<g id="edge36" class="edge">
<title>User&#45;&gt;Userable</title>
<path fill="none" stroke="#ad2374" d="M1578,-63.18C1578,-57.18 1578,-51.55 1578,-46.45"/>
<polygon fill="#ad2374" stroke="#ad2374" points="1578,-63.46 1573.5,-73.46 1578,-68.46 1578,-73.46 1578,-73.46 1578,-73.46 1578,-68.46 1582.5,-73.46 1578,-63.46 1578,-63.46"/>
<polygon fill="#ad2374" stroke="#ad2374" points="1578,-46.19 1582.5,-36.19 1578,-41.19 1578,-36.19 1578,-36.19 1578,-36.19 1578,-41.19 1573.5,-36.19 1578,-46.19 1578,-46.19"/>
</g>
</g>
</svg>
