<?xml version="1.0" encoding="UTF-8" standalone="no"?>
<!DOCTYPE svg PUBLIC "-//W3C//DTD SVG 1.1//EN"
 "http://www.w3.org/Graphics/SVG/1.1/DTD/svg11.dtd">
<!-- Generated by graphviz version 2.49.0 (20210828.1703)
 -->
<!-- Title: models_diagram Pages: 1 -->
<svg width="2005pt" height="486pt"
 viewBox="0.00 0.00 2005.49 486.00" xmlns="http://www.w3.org/2000/svg" xmlns:xlink="http://www.w3.org/1999/xlink">
<g id="graph0" class="graph" transform="scale(1 1) rotate(0) translate(4 482)">
<title>models_diagram</title>
<polygon fill="transparent" stroke="transparent" points="-4,4 -4,-482 2001.49,-482 2001.49,4 -4,4"/>
<!-- _diagram_info -->
<g id="node1" class="node">
<title>_diagram_info</title>
<text text-anchor="start" x="559.35" y="-463.6" font-family="Times,serif" font-size="13.00">Models diagram</text>
<text text-anchor="start" x="559.35" y="-449.6" font-family="Times,serif" font-size="13.00">Date: Sep 07 2021 &#45; 15:41</text>
<text text-anchor="start" x="559.35" y="-435.6" font-family="Times,serif" font-size="13.00">Migration version: 20210513191901</text>
<text text-anchor="start" x="559.35" y="-421.6" font-family="Times,serif" font-size="13.00">Generated by RailRoady 1.6.0</text>
<text text-anchor="start" x="559.35" y="-407.6" font-family="Times,serif" font-size="13.00">http://railroady.prestonlee.com</text>
</g>
<!-- ProjectCategory -->
<g id="node2" class="node">
<title>ProjectCategory</title>
<ellipse fill="none" stroke="black" cx="835.35" cy="-345" rx="69.59" ry="18"/>
<text text-anchor="middle" x="835.35" y="-341.3" font-family="Times,serif" font-size="14.00">ProjectCategory</text>
</g>
<!-- ProjectEventDetail -->
<g id="node3" class="node">
<title>ProjectEventDetail</title>
<ellipse fill="none" stroke="black" cx="991.35" cy="-439" rx="79.89" ry="18"/>
<text text-anchor="middle" x="991.35" y="-435.3" font-family="Times,serif" font-size="14.00">ProjectEventDetail</text>
</g>
<!-- Project -->
<g id="node8" class="node">
<title>Project</title>
<ellipse fill="none" stroke="black" cx="991.35" cy="-345" rx="36.29" ry="18"/>
<text text-anchor="middle" x="991.35" y="-341.3" font-family="Times,serif" font-size="14.00">Project</text>
</g>
<!-- ProjectEventDetail&#45;&gt;Project -->
<g id="edge1" class="edge">
<title>ProjectEventDetail&#45;&gt;Project</title>
<path fill="none" stroke="#eeba39" d="M991.35,-410.69C991.35,-398.92 991.35,-385.17 991.35,-373.39"/>
<polygon fill="#eeba39" stroke="#eeba39" points="991.35,-410.7 986.85,-420.7 991.35,-415.7 991.35,-420.7 991.35,-420.7 991.35,-420.7 991.35,-415.7 995.85,-420.7 991.35,-410.7 991.35,-410.7"/>
<polygon fill="#eeba39" stroke="#eeba39" points="991.35,-373.23 995.85,-363.23 991.35,-368.23 991.35,-363.23 991.35,-363.23 991.35,-363.23 991.35,-368.23 986.85,-363.23 991.35,-373.23 991.35,-373.23"/>
</g>
<!-- ProjectDetail -->
<g id="node4" class="node">
<title>ProjectDetail</title>
<ellipse fill="none" stroke="black" cx="835.35" cy="-439" rx="58.49" ry="18"/>
<text text-anchor="middle" x="835.35" y="-435.3" font-family="Times,serif" font-size="14.00">ProjectDetail</text>
</g>
<!-- ProjectDetail&#45;&gt;ProjectCategory -->
<g id="edge3" class="edge">
<title>ProjectDetail&#45;&gt;ProjectCategory</title>
<path fill="none" stroke="#051a0d" d="M835.35,-410.69C835.35,-398.92 835.35,-385.17 835.35,-373.39"/>
<polygon fill="#051a0d" stroke="#051a0d" points="835.35,-410.7 830.85,-420.7 835.35,-415.7 835.35,-420.7 835.35,-420.7 835.35,-420.7 835.35,-415.7 839.85,-420.7 835.35,-410.7 835.35,-410.7"/>
<polygon fill="#051a0d" stroke="#051a0d" points="835.35,-373.23 839.85,-363.23 835.35,-368.23 835.35,-363.23 835.35,-363.23 835.35,-363.23 835.35,-368.23 830.85,-363.23 835.35,-373.23 835.35,-373.23"/>
</g>
<!-- ProjectDetail&#45;&gt;Project -->
<g id="edge2" class="edge">
<title>ProjectDetail&#45;&gt;Project</title>
<path fill="none" stroke="#c5f430" d="M870,-417.57C896.88,-401.71 933.83,-379.92 959.87,-364.56"/>
<polygon fill="#c5f430" stroke="#c5f430" points="869.72,-417.73 858.82,-418.93 865.41,-420.27 861.11,-422.81 861.11,-422.81 861.11,-422.81 865.41,-420.27 863.39,-426.68 869.72,-417.73 869.72,-417.73"/>
<polygon fill="#c5f430" stroke="#c5f430" points="959.98,-364.5 970.88,-363.29 964.29,-361.96 968.6,-359.42 968.6,-359.42 968.6,-359.42 964.29,-361.96 966.31,-355.54 959.98,-364.5 959.98,-364.5"/>
</g>
<!-- Operative -->
<g id="node5" class="node">
<title>Operative</title>
<ellipse fill="none" stroke="black" cx="1452.35" cy="-164" rx="46.59" ry="18"/>
<text text-anchor="middle" x="1452.35" y="-160.3" font-family="Times,serif" font-size="14.00">Operative</text>
</g>
<!-- User -->
<g id="node28" class="node">
<title>User</title>
<ellipse fill="none" stroke="black" cx="1414.35" cy="-91" rx="27.9" ry="18"/>
<text text-anchor="middle" x="1414.35" y="-87.3" font-family="Times,serif" font-size="14.00">User</text>
</g>
<!-- Operative&#45;&gt;User -->
<g id="edge4" class="edge">
<title>Operative&#45;&gt;User</title>
<path fill="none" stroke="#6dd753" d="M1438.59,-137.3C1435.1,-130.77 1431.35,-123.77 1427.87,-117.27"/>
<polygon fill="#6dd753" stroke="#6dd753" points="1438.62,-137.36 1439.37,-148.3 1440.98,-141.77 1443.34,-146.17 1443.34,-146.17 1443.34,-146.17 1440.98,-141.77 1447.31,-144.05 1438.62,-137.36 1438.62,-137.36"/>
<polygon fill="#6dd753" stroke="#6dd753" points="1427.74,-117.03 1426.99,-106.09 1425.39,-112.62 1423.03,-108.22 1423.03,-108.22 1423.03,-108.22 1425.39,-112.62 1419.06,-110.34 1427.74,-117.03 1427.74,-117.03"/>
</g>
<!-- Collaborator -->
<g id="node6" class="node">
<title>Collaborator</title>
<ellipse fill="none" stroke="black" cx="1145.35" cy="-439" rx="56.59" ry="18"/>
<text text-anchor="middle" x="1145.35" y="-435.3" font-family="Times,serif" font-size="14.00">Collaborator</text>
</g>
<!-- Collaborator&#45;&gt;Project -->
<g id="edge5" class="edge">
<title>Collaborator&#45;&gt;Project</title>
<path fill="none" stroke="#fd9c99" d="M1111.14,-417.57C1084.6,-401.71 1048.13,-379.92 1022.42,-364.56"/>
<polygon fill="#fd9c99" stroke="#fd9c99" points="1111.33,-417.68 1117.61,-426.67 1115.62,-420.24 1119.92,-422.81 1119.92,-422.81 1119.92,-422.81 1115.62,-420.24 1122.22,-418.94 1111.33,-417.68 1111.33,-417.68"/>
<polygon fill="#fd9c99" stroke="#fd9c99" points="1022.39,-364.55 1016.11,-355.55 1018.1,-361.98 1013.81,-359.42 1013.81,-359.42 1013.81,-359.42 1018.1,-361.98 1011.5,-363.28 1022.39,-364.55 1022.39,-364.55"/>
</g>
<!-- Department -->
<g id="node7" class="node">
<title>Department</title>
<ellipse fill="none" stroke="black" cx="1273.35" cy="-439" rx="53.89" ry="18"/>
<text text-anchor="middle" x="1273.35" y="-435.3" font-family="Times,serif" font-size="14.00">Department</text>
</g>
<!-- Student -->
<g id="node9" class="node">
<title>Student</title>
<ellipse fill="none" stroke="black" cx="38.35" cy="-218" rx="38.19" ry="18"/>
<text text-anchor="middle" x="38.35" y="-214.3" font-family="Times,serif" font-size="14.00">Student</text>
</g>
<!-- Project&#45;&gt;Student -->
<g id="edge6" class="edge">
<title>Project&#45;&gt;Student</title>
<path fill="none" stroke="#6cd637" d="M949.23,-333.84C937.95,-331.35 925.72,-328.87 914.35,-327 764.79,-302.4 725.97,-306.84 575.35,-290 365.51,-266.55 310.9,-274.81 103.35,-236 95.77,-234.58 87.78,-232.77 80.09,-230.85"/>
<polygon fill="#6cd637" stroke="#6cd637" points="949.52,-333.9 958.29,-340.49 954.4,-335 959.28,-336.1 959.28,-336.1 959.28,-336.1 954.4,-335 960.27,-331.71 949.52,-333.9 949.52,-333.9"/>
<polygon fill="#6cd637" stroke="#6cd637" points="79.89,-230.8 71.34,-223.94 75.05,-229.55 70.21,-228.3 70.21,-228.3 70.21,-228.3 75.05,-229.55 69.09,-232.65 79.89,-230.8 79.89,-230.8"/>
</g>
<!-- VirtualSample -->
<g id="node10" class="node">
<title>VirtualSample</title>
<ellipse fill="none" stroke="black" cx="647.35" cy="-272" rx="63.09" ry="18"/>
<text text-anchor="middle" x="647.35" y="-268.3" font-family="Times,serif" font-size="14.00">VirtualSample</text>
</g>
<!-- Project&#45;&gt;VirtualSample -->
<g id="edge11" class="edge">
<title>Project&#45;&gt;VirtualSample</title>
<path fill="none" stroke="#05838b" d="M948.79,-334.46C937.6,-331.99 925.52,-329.36 914.35,-327 843.49,-312.02 761.87,-295.64 707.71,-284.89"/>
<polygon fill="#05838b" stroke="#05838b" points="949.02,-334.51 957.81,-341.07 953.9,-335.59 958.78,-336.68 958.78,-336.68 958.78,-336.68 953.9,-335.59 959.75,-332.28 949.02,-334.51 949.02,-334.51"/>
<polygon fill="#05838b" stroke="#05838b" points="707.4,-284.83 698.47,-278.47 702.5,-283.86 697.6,-282.89 697.6,-282.89 697.6,-282.89 702.5,-283.86 696.72,-287.3 707.4,-284.83 707.4,-284.83"/>
</g>
<!-- SocialImpact -->
<g id="node11" class="node">
<title>SocialImpact</title>
<ellipse fill="none" stroke="black" cx="811.35" cy="-272" rx="58.49" ry="18"/>
<text text-anchor="middle" x="811.35" y="-268.3" font-family="Times,serif" font-size="14.00">SocialImpact</text>
</g>
<!-- Project&#45;&gt;SocialImpact -->
<g id="edge14" class="edge">
<title>Project&#45;&gt;SocialImpact</title>
<path fill="none" stroke="#d3ee36" d="M954.21,-329.35C925.51,-318.03 885.68,-302.32 855.37,-290.37"/>
<polygon fill="#d3ee36" stroke="#d3ee36" points="954.31,-329.39 961.96,-337.25 958.96,-331.23 963.62,-333.06 963.62,-333.06 963.62,-333.06 958.96,-331.23 965.27,-328.88 954.31,-329.39 954.31,-329.39"/>
<polygon fill="#d3ee36" stroke="#d3ee36" points="855.19,-290.3 847.54,-282.44 850.54,-288.46 845.89,-286.63 845.89,-286.63 845.89,-286.63 850.54,-288.46 844.24,-290.81 855.19,-290.3 855.19,-290.3"/>
</g>
<!-- Edition -->
<g id="node16" class="node">
<title>Edition</title>
<ellipse fill="none" stroke="black" cx="925.35" cy="-272" rx="37.89" ry="18"/>
<text text-anchor="middle" x="925.35" y="-268.3" font-family="Times,serif" font-size="14.00">Edition</text>
</g>
<!-- Project&#45;&gt;Edition -->
<g id="edge9" class="edge">
<title>Project&#45;&gt;Edition</title>
<path fill="none" stroke="#2d29f4" d="M969.61,-320.62C962.31,-312.77 954.18,-304.01 946.89,-296.18"/>
<polygon fill="#2d29f4" stroke="#2d29f4" points="969.89,-320.92 973.4,-331.31 973.29,-324.58 976.7,-328.24 976.7,-328.24 976.7,-328.24 973.29,-324.58 979.99,-325.18 969.89,-320.92 969.89,-320.92"/>
<polygon fill="#2d29f4" stroke="#2d29f4" points="946.76,-296.04 943.25,-285.65 943.36,-292.38 939.95,-288.71 939.95,-288.71 939.95,-288.71 943.36,-292.38 936.66,-291.78 946.76,-296.04 946.76,-296.04"/>
</g>
<!-- Professor -->
<g id="node17" class="node">
<title>Professor</title>
<ellipse fill="none" stroke="black" cx="1294.35" cy="-218" rx="44.69" ry="18"/>
<text text-anchor="middle" x="1294.35" y="-214.3" font-family="Times,serif" font-size="14.00">Professor</text>
</g>
<!-- Project&#45;&gt;Professor -->
<g id="edge7" class="edge">
<title>Project&#45;&gt;Professor</title>
<path fill="none" stroke="#0881c4" d="M989.14,-316.5C989.15,-296.09 992.94,-269.26 1010.35,-254 1030.04,-236.74 1219.71,-241.34 1245.35,-236 1248.02,-235.44 1250.75,-234.78 1253.49,-234.04"/>
<polygon fill="#0881c4" stroke="#0881c4" points="989.15,-316.78 984.95,-326.91 989.3,-321.78 989.45,-326.78 989.45,-326.78 989.45,-326.78 989.3,-321.78 993.95,-326.64 989.15,-316.78 989.15,-316.78"/>
<polygon fill="#0881c4" stroke="#0881c4" points="1253.73,-233.97 1264.6,-235.42 1258.53,-232.54 1263.32,-231.11 1263.32,-231.11 1263.32,-231.11 1258.53,-232.54 1262.03,-226.79 1253.73,-233.97 1253.73,-233.97"/>
</g>
<!-- CommitteeEvaluation -->
<g id="node20" class="node">
<title>CommitteeEvaluation</title>
<ellipse fill="none" stroke="black" cx="1109.35" cy="-272" rx="90.18" ry="18"/>
<text text-anchor="middle" x="1109.35" y="-268.3" font-family="Times,serif" font-size="14.00">CommitteeEvaluation</text>
</g>
<!-- Project&#45;&gt;CommitteeEvaluation -->
<g id="edge10" class="edge">
<title>Project&#45;&gt;CommitteeEvaluation</title>
<path fill="none" stroke="#662afb" d="M1022.25,-325.41C1037.97,-315.95 1057.16,-304.4 1073.52,-294.56"/>
<polygon fill="#662afb" stroke="#662afb" points="1022.11,-325.49 1011.22,-326.79 1017.83,-328.07 1013.54,-330.65 1013.54,-330.65 1013.54,-330.65 1017.83,-328.07 1015.86,-334.5 1022.11,-325.49 1022.11,-325.49"/>
<polygon fill="#662afb" stroke="#662afb" points="1073.71,-294.44 1084.6,-293.14 1078,-291.86 1082.28,-289.29 1082.28,-289.29 1082.28,-289.29 1078,-291.86 1079.96,-285.43 1073.71,-294.44 1073.71,-294.44"/>
</g>
<!-- Institution -->
<g id="node23" class="node">
<title>Institution</title>
<ellipse fill="none" stroke="black" cx="1392.35" cy="-218" rx="48.19" ry="18"/>
<text text-anchor="middle" x="1392.35" y="-214.3" font-family="Times,serif" font-size="14.00">Institution</text>
</g>
<!-- Project&#45;&gt;Institution -->
<g id="edge8" class="edge">
<title>Project&#45;&gt;Institution</title>
<path fill="none" stroke="#001196" d="M1036.99,-339.51C1082.69,-333.48 1153.86,-319.85 1208.35,-290 1228.75,-278.82 1225.64,-264.61 1246.35,-254 1284.2,-234.59 1299.16,-246.63 1340.35,-236 1343.11,-235.29 1345.93,-234.51 1348.77,-233.69"/>
<polygon fill="#001196" stroke="#001196" points="1036.72,-339.54 1026.24,-336.32 1031.76,-340.16 1026.8,-340.78 1026.8,-340.78 1026.8,-340.78 1031.76,-340.16 1027.36,-345.25 1036.72,-339.54 1036.72,-339.54"/>
<polygon fill="#001196" stroke="#001196" points="1348.83,-233.67 1359.71,-235.09 1353.62,-232.23 1358.4,-230.78 1358.4,-230.78 1358.4,-230.78 1353.62,-232.23 1357.1,-226.47 1348.83,-233.67 1348.83,-233.67"/>
</g>
<!-- Abstract -->
<g id="node26" class="node">
<title>Abstract</title>
<ellipse fill="none" stroke="black" cx="1297.35" cy="-272" rx="41.69" ry="18"/>
<text text-anchor="middle" x="1297.35" y="-268.3" font-family="Times,serif" font-size="14.00">Abstract</text>
</g>
<!-- Project&#45;&gt;Abstract -->
<g id="edge13" class="edge">
<title>Project&#45;&gt;Abstract</title>
<path fill="none" stroke="#a1f339" d="M1037.84,-343.41C1089.16,-341.43 1173.5,-334.17 1241.35,-309 1251.34,-305.29 1261.41,-299.58 1270.19,-293.79"/>
<polygon fill="#a1f339" stroke="#a1f339" points="1037.71,-343.42 1027.57,-339.26 1032.72,-343.59 1027.72,-343.75 1027.72,-343.75 1027.72,-343.75 1032.72,-343.59 1027.87,-348.25 1037.71,-343.42 1037.71,-343.42"/>
<polygon fill="#a1f339" stroke="#a1f339" points="1270.27,-293.74 1281.06,-291.75 1274.39,-290.89 1278.5,-288.05 1278.5,-288.05 1278.5,-288.05 1274.39,-290.89 1275.94,-284.35 1270.27,-293.74 1270.27,-293.74"/>
</g>
<!-- JudgeEvaluation -->
<g id="node27" class="node">
<title>JudgeEvaluation</title>
<ellipse fill="none" stroke="black" cx="1428.35" cy="-272" rx="71.49" ry="18"/>
<text text-anchor="middle" x="1428.35" y="-268.3" font-family="Times,serif" font-size="14.00">JudgeEvaluation</text>
</g>
<!-- Project&#45;&gt;JudgeEvaluation -->
<g id="edge12" class="edge">
<title>Project&#45;&gt;JudgeEvaluation</title>
<path fill="none" stroke="#8e46a6" d="M1036.51,-338.98C1089.19,-332.91 1178.83,-321.87 1255.35,-309 1296.95,-302 1307.05,-298.61 1348.35,-290 1353.96,-288.83 1359.79,-287.61 1365.63,-286.38"/>
<polygon fill="#8e46a6" stroke="#8e46a6" points="1036.42,-338.99 1025.97,-335.66 1031.45,-339.56 1026.48,-340.13 1026.48,-340.13 1026.48,-340.13 1031.45,-339.56 1026.99,-344.6 1036.42,-338.99 1036.42,-338.99"/>
<polygon fill="#8e46a6" stroke="#8e46a6" points="1365.64,-286.37 1376.36,-288.71 1370.54,-285.34 1375.43,-284.31 1375.43,-284.31 1375.43,-284.31 1370.54,-285.34 1374.5,-279.9 1365.64,-286.37 1365.64,-286.37"/>
</g>
<!-- Student&#45;&gt;User -->
<g id="edge15" class="edge">
<title>Student&#45;&gt;User</title>
<path fill="none" stroke="#29700e" d="M55.56,-192.5C68.55,-176.17 87.94,-155.94 110.35,-146 246.25,-85.7 295.82,-133.9 444.35,-127 806.59,-110.16 1245.26,-96.9 1375.89,-93.1"/>
<polygon fill="#29700e" stroke="#29700e" points="55.43,-192.66 45.79,-197.87 52.4,-196.63 49.36,-200.61 49.36,-200.61 49.36,-200.61 52.4,-196.63 52.94,-203.34 55.43,-192.66 55.43,-192.66"/>
<polygon fill="#29700e" stroke="#29700e" points="1376.17,-93.09 1386.3,-97.3 1381.17,-92.95 1386.17,-92.8 1386.17,-92.8 1386.17,-92.8 1381.17,-92.95 1386.04,-88.3 1376.17,-93.09 1376.17,-93.09"/>
</g>
<!-- Comment -->
<g id="node21" class="node">
<title>Comment</title>
<ellipse fill="none" stroke="black" cx="166.35" cy="-164" rx="46.59" ry="18"/>
<text text-anchor="middle" x="166.35" y="-160.3" font-family="Times,serif" font-size="14.00">Comment</text>
</g>
<!-- VirtualSample&#45;&gt;Comment -->
<g id="edge24" class="edge">
<title>VirtualSample&#45;&gt;Comment</title>
<path fill="none" stroke="#6e7fa1" d="M575.55,-267.56C431.7,-260.5 121.15,-244.33 113.35,-236 102.41,-224.32 105.77,-214.09 113.35,-200 116.83,-193.52 122.1,-188.05 127.98,-183.49"/>
<polygon fill="#6e7fa1" stroke="#6e7fa1" points="575.63,-267.56 585.4,-272.55 580.62,-267.81 585.62,-268.05 585.62,-268.05 585.62,-268.05 580.62,-267.81 585.84,-263.56 575.63,-267.56 575.63,-267.56"/>
<polygon fill="#6e7fa1" stroke="#6e7fa1" points="128.01,-183.47 138.81,-181.55 132.14,-180.65 136.27,-177.83 136.27,-177.83 136.27,-177.83 132.14,-180.65 133.74,-174.11 128.01,-183.47 128.01,-183.47"/>
</g>
<!-- ActiveStorage::Attachment -->
<g id="node29" class="node">
<title>ActiveStorage::Attachment</title>
<ellipse fill="none" stroke="black" cx="359.35" cy="-164" rx="110.48" ry="18"/>
<text text-anchor="middle" x="359.35" y="-160.3" font-family="Times,serif" font-size="14.00">ActiveStorage::Attachment</text>
</g>
<!-- VirtualSample&#45;&gt;ActiveStorage::Attachment -->
<g id="edge16" class="edge">
<title>VirtualSample&#45;&gt;ActiveStorage::Attachment</title>
<path fill="none" stroke="#1d58c6" d="M575.43,-267.44C434.06,-260.28 132.94,-244.12 125.35,-236 114.42,-224.31 114.9,-212.12 125.35,-200 127.78,-197.18 202.52,-186.33 266.88,-177.44"/>
<polygon fill="#1d58c6" stroke="#1d58c6" points="575.75,-267.46 585.51,-272.46 580.74,-267.71 585.73,-267.96 585.73,-267.96 585.73,-267.96 580.74,-267.71 585.96,-263.47 575.75,-267.46 575.75,-267.46"/>
<polygon fill="#1d58c6" stroke="#1d58c6" points="267.2,-177.4 277.72,-180.5 272.15,-176.72 277.11,-176.04 277.11,-176.04 277.11,-176.04 272.15,-176.72 276.49,-171.58 267.2,-177.4 267.2,-177.4"/>
<text text-anchor="middle" x="192.35" y="-214.3" font-family="Times,serif" font-size="14.00">icon_image_attachment</text>
</g>
<!-- VirtualSample&#45;&gt;ActiveStorage::Attachment -->
<g id="edge18" class="edge">
<title>VirtualSample&#45;&gt;ActiveStorage::Attachment</title>
<path fill="none" stroke="#1e129b" d="M574.74,-269.17C473.9,-265.87 301.59,-257.18 282.35,-236 271.59,-224.16 273.68,-213.45 282.35,-200 286.09,-194.19 291.05,-189.34 296.66,-185.28"/>
<polygon fill="#1e129b" stroke="#1e129b" points="574.87,-269.18 584.72,-273.99 579.87,-269.34 584.87,-269.49 584.87,-269.49 584.87,-269.49 579.87,-269.34 585.01,-265 574.87,-269.18 574.87,-269.18"/>
<polygon fill="#1e129b" stroke="#1e129b" points="296.8,-185.19 307.67,-183.71 301.04,-182.54 305.28,-179.89 305.28,-179.89 305.28,-179.89 301.04,-182.54 302.9,-176.08 296.8,-185.19 296.8,-185.19"/>
<text text-anchor="middle" x="344.85" y="-214.3" font-family="Times,serif" font-size="14.00">about_file_attachment</text>
</g>
<!-- VirtualSample&#45;&gt;ActiveStorage::Attachment -->
<g id="edge20" class="edge">
<title>VirtualSample&#45;&gt;ActiveStorage::Attachment</title>
<path fill="none" stroke="#0cc0d5" d="M576.63,-265.84C522.76,-260.77 453.94,-251.5 430.35,-236 414.48,-225.58 420.35,-213.83 407.35,-200 403.27,-195.67 398.6,-191.51 393.8,-187.67"/>
<polygon fill="#0cc0d5" stroke="#0cc0d5" points="576.89,-265.86 586.44,-271.25 581.87,-266.32 586.85,-266.77 586.85,-266.77 586.85,-266.77 581.87,-266.32 587.25,-262.29 576.89,-265.86 576.89,-265.86"/>
<polygon fill="#0cc0d5" stroke="#0cc0d5" points="393.67,-187.57 388.42,-177.95 389.69,-184.55 385.7,-181.53 385.7,-181.53 385.7,-181.53 389.69,-184.55 382.98,-185.12 393.67,-187.57 393.67,-187.57"/>
<text text-anchor="middle" x="492.85" y="-214.3" font-family="Times,serif" font-size="14.00">video_file_attachment</text>
</g>
<!-- VirtualSample&#45;&gt;ActiveStorage::Attachment -->
<g id="edge22" class="edge">
<title>VirtualSample&#45;&gt;ActiveStorage::Attachment</title>
<path fill="none" stroke="#97ac19" d="M598.87,-253.18C590.05,-248.49 581.41,-242.8 574.35,-236 561.31,-223.46 569.96,-210.67 555.35,-200 539.97,-188.77 501.54,-180.72 462.74,-175.2"/>
<polygon fill="#97ac19" stroke="#97ac19" points="599.11,-253.29 606.1,-261.74 603.59,-255.49 608.08,-257.7 608.08,-257.7 608.08,-257.7 603.59,-255.49 610.07,-253.66 599.11,-253.29 599.11,-253.29"/>
<polygon fill="#97ac19" stroke="#97ac19" points="462.25,-175.13 452.95,-169.32 457.3,-174.46 452.34,-173.78 452.34,-173.78 452.34,-173.78 457.3,-174.46 451.73,-178.24 462.25,-175.13 462.25,-175.13"/>
<text text-anchor="middle" x="631.35" y="-214.3" font-family="Times,serif" font-size="14.00">images_attachments</text>
</g>
<!-- ActiveStorage::Blob -->
<g id="node30" class="node">
<title>ActiveStorage::Blob</title>
<ellipse fill="none" stroke="black" cx="885.35" cy="-164" rx="85.59" ry="18"/>
<text text-anchor="middle" x="885.35" y="-160.3" font-family="Times,serif" font-size="14.00">ActiveStorage::Blob</text>
</g>
<!-- VirtualSample&#45;&gt;ActiveStorage::Blob -->
<g id="edge17" class="edge">
<title>VirtualSample&#45;&gt;ActiveStorage::Blob</title>
<path fill="none" stroke="#749619" d="M679,-248.63C683.72,-244.67 688.33,-240.4 692.35,-236 705.14,-221.97 699.7,-210.76 715.35,-200 737.8,-184.55 765.61,-175.65 792.18,-170.6"/>
<polygon fill="#749619" stroke="#749619" points="678.89,-248.72 668.27,-251.43 674.98,-251.83 671.07,-254.95 671.07,-254.95 671.07,-254.95 674.98,-251.83 673.88,-258.47 678.89,-248.72 678.89,-248.72"/>
<polygon fill="#749619" stroke="#749619" points="792.44,-170.55 803.06,-173.28 797.37,-169.7 802.29,-168.84 802.29,-168.84 802.29,-168.84 797.37,-169.7 801.52,-164.41 792.44,-170.55 792.44,-170.55"/>
<text text-anchor="middle" x="764.35" y="-214.3" font-family="Times,serif" font-size="14.00">icon_image_blob</text>
</g>
<!-- VirtualSample&#45;&gt;ActiveStorage::Blob -->
<g id="edge19" class="edge">
<title>VirtualSample&#45;&gt;ActiveStorage::Blob</title>
<path fill="none" stroke="#bd589d" d="M710.04,-260.19C753.34,-252.32 804.64,-242.02 813.35,-236 828.96,-225.2 823.27,-213.77 836.35,-200 840.54,-195.58 845.37,-191.36 850.32,-187.47"/>
<polygon fill="#bd589d" stroke="#bd589d" points="709.93,-260.21 699.29,-257.56 705.01,-261.1 700.09,-261.99 700.09,-261.99 700.09,-261.99 705.01,-261.1 700.89,-266.42 709.93,-260.21 709.93,-260.21"/>
<polygon fill="#bd589d" stroke="#bd589d" points="850.65,-187.23 861.36,-184.89 854.67,-184.26 858.68,-181.28 858.68,-181.28 858.68,-181.28 854.67,-184.26 856,-177.66 850.65,-187.23 850.65,-187.23"/>
<text text-anchor="middle" x="880.35" y="-214.3" font-family="Times,serif" font-size="14.00">about_file_blob</text>
</g>
<!-- VirtualSample&#45;&gt;ActiveStorage::Blob -->
<g id="edge21" class="edge">
<title>VirtualSample&#45;&gt;ActiveStorage::Blob</title>
<path fill="none" stroke="#7c82d4" d="M708.22,-259.62C720.18,-257.59 732.64,-255.61 744.35,-254 764.26,-251.26 910.86,-250.9 924.35,-236 935.08,-224.14 930.87,-214.61 924.35,-200 922.5,-195.87 919.91,-192.02 916.91,-188.51"/>
<polygon fill="#7c82d4" stroke="#7c82d4" points="708.19,-259.63 697.56,-256.9 703.26,-260.48 698.33,-261.34 698.33,-261.34 698.33,-261.34 703.26,-260.48 699.1,-265.77 708.19,-259.63 708.19,-259.63"/>
<polygon fill="#7c82d4" stroke="#7c82d4" points="916.89,-188.48 913.09,-178.2 913.39,-184.92 909.88,-181.35 909.88,-181.35 909.88,-181.35 913.39,-184.92 906.67,-184.51 916.89,-188.48 916.89,-188.48"/>
<text text-anchor="middle" x="975.35" y="-214.3" font-family="Times,serif" font-size="14.00">video_file_blob</text>
</g>
<!-- VirtualSample&#45;&gt;ActiveStorage::Blob -->
<g id="edge23" class="edge">
<title>VirtualSample&#45;&gt;ActiveStorage::Blob</title>
<path fill="none" stroke="#ec121b" d="M707.78,-259.36C719.85,-257.33 732.48,-255.42 744.35,-254 775.19,-250.31 1002.1,-258.66 1023.35,-236 1034.29,-224.33 1033.17,-212.63 1023.35,-200 1015.44,-189.84 991.11,-182.15 965.04,-176.61"/>
<polygon fill="#ec121b" stroke="#ec121b" points="707.64,-259.38 697.02,-256.65 702.71,-260.23 697.79,-261.09 697.79,-261.09 697.79,-261.09 702.71,-260.23 698.55,-265.52 707.64,-259.38 707.64,-259.38"/>
<polygon fill="#ec121b" stroke="#ec121b" points="964.79,-176.56 955.88,-170.17 959.89,-175.57 954.99,-174.58 954.99,-174.58 954.99,-174.58 959.89,-175.57 954.1,-179 964.79,-176.56 964.79,-176.56"/>
<text text-anchor="middle" x="1069.85" y="-214.3" font-family="Times,serif" font-size="14.00">images_blobs</text>
</g>
<!-- Judge -->
<g id="node12" class="node">
<title>Judge</title>
<ellipse fill="none" stroke="black" cx="1502.35" cy="-345" rx="31.7" ry="18"/>
<text text-anchor="middle" x="1502.35" y="-341.3" font-family="Times,serif" font-size="14.00">Judge</text>
</g>
<!-- Judge&#45;&gt;JudgeEvaluation -->
<g id="edge26" class="edge">
<title>Judge&#45;&gt;JudgeEvaluation</title>
<path fill="none" stroke="#ef5d86" d="M1479.14,-321.73C1470.82,-313.75 1461.42,-304.73 1452.98,-296.64"/>
<polygon fill="#ef5d86" stroke="#ef5d86" points="1479.44,-322.02 1483.54,-332.19 1483.05,-325.48 1486.65,-328.94 1486.65,-328.94 1486.65,-328.94 1483.05,-325.48 1489.77,-325.7 1479.44,-322.02 1479.44,-322.02"/>
<polygon fill="#ef5d86" stroke="#ef5d86" points="1452.78,-296.45 1448.68,-286.28 1449.18,-292.98 1445.57,-289.52 1445.57,-289.52 1445.57,-289.52 1449.18,-292.98 1442.45,-292.77 1452.78,-296.45 1452.78,-296.45"/>
</g>
<!-- Judge&#45;&gt;User -->
<g id="edge25" class="edge">
<title>Judge&#45;&gt;User</title>
<path fill="none" stroke="#40df74" d="M1511.39,-317.61C1523.41,-277.52 1539.73,-200.21 1508.35,-146 1495.73,-124.2 1470.62,-110.44 1449.53,-102.27"/>
<polygon fill="#40df74" stroke="#40df74" points="1511.38,-317.65 1504.09,-325.84 1509.88,-322.42 1508.38,-327.19 1508.38,-327.19 1508.38,-327.19 1509.88,-322.42 1512.68,-328.54 1511.38,-317.65 1511.38,-317.65"/>
<polygon fill="#40df74" stroke="#40df74" points="1449.28,-102.18 1441.4,-94.56 1444.58,-100.49 1439.87,-98.79 1439.87,-98.79 1439.87,-98.79 1444.58,-100.49 1438.35,-103.03 1449.28,-102.18 1449.28,-102.18"/>
</g>
<!-- CommitteeMember -->
<g id="node13" class="node">
<title>CommitteeMember</title>
<ellipse fill="none" stroke="black" cx="1637.35" cy="-164" rx="81.79" ry="18"/>
<text text-anchor="middle" x="1637.35" y="-160.3" font-family="Times,serif" font-size="14.00">CommitteeMember</text>
</g>
<!-- CommitteeMember&#45;&gt;User -->
<g id="edge27" class="edge">
<title>CommitteeMember&#45;&gt;User</title>
<path fill="none" stroke="#aebd0f" d="M1589.55,-144.11C1574.26,-138.33 1557.18,-132.14 1541.35,-127 1510.95,-117.13 1475.89,-107.61 1450.32,-100.99"/>
<polygon fill="#aebd0f" stroke="#aebd0f" points="1589.98,-144.27 1597.71,-152.04 1594.65,-146.06 1599.32,-147.84 1599.32,-147.84 1599.32,-147.84 1594.65,-146.06 1600.92,-143.64 1589.98,-144.27 1589.98,-144.27"/>
<polygon fill="#aebd0f" stroke="#aebd0f" points="1450.02,-100.92 1441.45,-94.07 1445.18,-99.67 1440.33,-98.43 1440.33,-98.43 1440.33,-98.43 1445.18,-99.67 1439.21,-102.79 1450.02,-100.92 1450.02,-100.92"/>
</g>
<!-- Administrator -->
<g id="node14" class="node">
<title>Administrator</title>
<ellipse fill="none" stroke="black" cx="1799.35" cy="-164" rx="61.99" ry="18"/>
<text text-anchor="middle" x="1799.35" y="-160.3" font-family="Times,serif" font-size="14.00">Administrator</text>
</g>
<!-- Administrator&#45;&gt;User -->
<g id="edge28" class="edge">
<title>Administrator&#45;&gt;User</title>
<path fill="none" stroke="#9ff85f" d="M1743.93,-149.37C1738.67,-148.18 1733.42,-147.04 1728.35,-146 1628.68,-125.52 1510.11,-106.59 1451.27,-97.56"/>
<polygon fill="#9ff85f" stroke="#9ff85f" points="1744.25,-149.44 1752.98,-156.06 1749.12,-150.56 1753.99,-151.68 1753.99,-151.68 1753.99,-151.68 1749.12,-150.56 1755,-147.29 1744.25,-149.44 1744.25,-149.44"/>
<polygon fill="#9ff85f" stroke="#9ff85f" points="1451.22,-97.55 1442.02,-91.59 1446.28,-96.79 1441.34,-96.04 1441.34,-96.04 1441.34,-96.04 1446.28,-96.79 1440.66,-100.49 1451.22,-97.55 1451.22,-97.55"/>
</g>
<!-- StaffMember -->
<g id="node15" class="node">
<title>StaffMember</title>
<ellipse fill="none" stroke="black" cx="1938.35" cy="-164" rx="59.29" ry="18"/>
<text text-anchor="middle" x="1938.35" y="-160.3" font-family="Times,serif" font-size="14.00">StaffMember</text>
</g>
<!-- StaffMember&#45;&gt;User -->
<g id="edge29" class="edge">
<title>StaffMember&#45;&gt;User</title>
<path fill="none" stroke="#1b7375" d="M1885.79,-149.16C1880.59,-148 1875.38,-146.92 1870.35,-146 1716.64,-117.8 1530.95,-101.13 1452.39,-94.86"/>
<polygon fill="#1b7375" stroke="#1b7375" points="1885.98,-149.2 1894.71,-155.85 1890.85,-150.33 1895.72,-151.46 1895.72,-151.46 1895.72,-151.46 1890.85,-150.33 1896.74,-147.08 1885.98,-149.2 1885.98,-149.2"/>
<polygon fill="#1b7375" stroke="#1b7375" points="1452,-94.83 1442.38,-89.56 1447.01,-94.44 1442.03,-94.04 1442.03,-94.04 1442.03,-94.04 1447.01,-94.44 1441.68,-98.53 1452,-94.83 1452,-94.83"/>
</g>
<!-- Question -->
<g id="node18" class="node">
<title>Question</title>
<ellipse fill="none" stroke="black" cx="1081.35" cy="-164" rx="43.59" ry="18"/>
<text text-anchor="middle" x="1081.35" y="-160.3" font-family="Times,serif" font-size="14.00">Question</text>
</g>
<!-- Edition&#45;&gt;Question -->
<g id="edge31" class="edge">
<title>Edition&#45;&gt;Question</title>
<path fill="none" stroke="#7aa90d" d="M963.9,-257.44C968.39,-256.15 972.95,-254.96 977.35,-254 1011.87,-246.47 1111.82,-262.36 1135.35,-236 1146,-224.06 1142.99,-214.06 1135.35,-200 1131.68,-193.25 1126.09,-187.6 1119.87,-182.95"/>
<polygon fill="#7aa90d" stroke="#7aa90d" points="963.77,-257.48 952.89,-256.11 958.99,-258.95 954.21,-260.41 954.21,-260.41 954.21,-260.41 958.99,-258.95 955.53,-264.72 963.77,-257.48 963.77,-257.48"/>
<polygon fill="#7aa90d" stroke="#7aa90d" points="1119.48,-182.7 1113.59,-173.45 1115.3,-179.96 1111.12,-177.22 1111.12,-177.22 1111.12,-177.22 1115.3,-179.96 1108.65,-180.98 1119.48,-182.7 1119.48,-182.7"/>
</g>
<!-- Phase -->
<g id="node25" class="node">
<title>Phase</title>
<ellipse fill="none" stroke="black" cx="1174.35" cy="-164" rx="31.7" ry="18"/>
<text text-anchor="middle" x="1174.35" y="-160.3" font-family="Times,serif" font-size="14.00">Phase</text>
</g>
<!-- Edition&#45;&gt;Phase -->
<g id="edge32" class="edge">
<title>Edition&#45;&gt;Phase</title>
<path fill="none" stroke="#bd0e0a" d="M963.88,-257.39C968.39,-256.1 972.94,-254.93 977.35,-254 1015.81,-245.84 1123.09,-261.1 1153.35,-236 1166.13,-225.4 1171.36,-207.41 1173.4,-192.2"/>
<polygon fill="#bd0e0a" stroke="#bd0e0a" points="963.76,-257.43 952.88,-256.05 958.98,-258.89 954.2,-260.35 954.2,-260.35 954.2,-260.35 958.98,-258.89 955.52,-264.66 963.76,-257.43 963.76,-257.43"/>
<polygon fill="#bd0e0a" stroke="#bd0e0a" points="1173.4,-192.19 1178.84,-182.67 1173.88,-187.21 1174.36,-182.23 1174.36,-182.23 1174.36,-182.23 1173.88,-187.21 1169.88,-181.8 1173.4,-192.19 1173.4,-192.19"/>
</g>
<!-- Edition&#45;&gt;User -->
<g id="edge30" class="edge">
<title>Edition&#45;&gt;User</title>
<path fill="none" stroke="#3851bb" d="M966.02,-258.95C973.4,-257.07 981.07,-255.32 988.35,-254 1070.94,-239.01 1096.73,-262.6 1176.35,-236 1249.01,-211.73 1257.74,-185.55 1323.35,-146 1344.11,-133.48 1367.66,-119.52 1385.59,-108.93"/>
<polygon fill="#3851bb" stroke="#3851bb" points="965.86,-259 955.04,-257.22 961.03,-260.28 956.19,-261.57 956.19,-261.57 956.19,-261.57 961.03,-260.28 957.35,-265.91 965.86,-259 965.86,-259"/>
<polygon fill="#3851bb" stroke="#3851bb" points="1385.8,-108.8 1396.7,-107.6 1390.11,-106.26 1394.42,-103.72 1394.42,-103.72 1394.42,-103.72 1390.11,-106.26 1392.13,-99.84 1385.8,-108.8 1385.8,-108.8"/>
</g>
<!-- Professor&#45;&gt;User -->
<g id="edge33" class="edge">
<title>Professor&#45;&gt;User</title>
<path fill="none" stroke="#f7cd35" d="M1316.89,-193.52C1338.73,-170.77 1371.61,-136.52 1393.02,-114.21"/>
<polygon fill="#f7cd35" stroke="#f7cd35" points="1316.71,-193.7 1306.54,-197.8 1313.25,-197.31 1309.79,-200.91 1309.79,-200.91 1309.79,-200.91 1313.25,-197.31 1313.04,-204.03 1316.71,-193.7 1316.71,-193.7"/>
<polygon fill="#f7cd35" stroke="#f7cd35" points="1393.16,-114.07 1403.33,-109.97 1396.62,-110.46 1400.08,-106.86 1400.08,-106.86 1400.08,-106.86 1396.62,-110.46 1396.84,-103.74 1393.16,-114.07 1393.16,-114.07"/>
</g>
<!-- ProjectArea -->
<g id="node19" class="node">
<title>ProjectArea</title>
<ellipse fill="none" stroke="black" cx="1399.35" cy="-439" rx="53.89" ry="18"/>
<text text-anchor="middle" x="1399.35" y="-435.3" font-family="Times,serif" font-size="14.00">ProjectArea</text>
</g>
<!-- Comment&#45;&gt;User -->
<g id="edge34" class="edge">
<title>Comment&#45;&gt;User</title>
<path fill="none" stroke="#0d5e82" d="M213.55,-150.83C222.4,-148.92 231.62,-147.19 240.35,-146 467.55,-114.93 1200.9,-96.79 1376.37,-92.83"/>
<polygon fill="#0d5e82" stroke="#0d5e82" points="213.51,-150.84 202.76,-148.64 208.63,-151.93 203.75,-153.03 203.75,-153.03 203.75,-153.03 208.63,-151.93 204.74,-157.42 213.51,-150.84 213.51,-150.84"/>
<polygon fill="#0d5e82" stroke="#0d5e82" points="1376.42,-92.83 1386.52,-97.1 1381.42,-92.71 1386.41,-92.6 1386.41,-92.6 1386.41,-92.6 1381.42,-92.71 1386.31,-88.1 1376.42,-92.83 1376.42,-92.83"/>
</g>
<!-- Course -->
<g id="node22" class="node">
<title>Course</title>
<ellipse fill="none" stroke="black" cx="1507.35" cy="-439" rx="36.29" ry="18"/>
<text text-anchor="middle" x="1507.35" y="-435.3" font-family="Times,serif" font-size="14.00">Course</text>
</g>
<!-- Institution&#45;&gt;User -->
<g id="edge35" class="edge">
<title>Institution&#45;&gt;User</title>
<path fill="none" stroke="#60e32c" d="M1392.2,-189.55C1392.56,-176.29 1393.63,-160.21 1396.35,-146 1398.11,-136.79 1401.04,-126.99 1404.02,-118.3"/>
<polygon fill="#60e32c" stroke="#60e32c" points="1392.2,-189.92 1387.55,-199.85 1392.12,-194.92 1392.05,-199.92 1392.05,-199.92 1392.05,-199.92 1392.12,-194.92 1396.55,-199.99 1392.2,-189.92 1392.2,-189.92"/>
<polygon fill="#60e32c" stroke="#60e32c" points="1404.09,-118.12 1411.72,-110.25 1405.79,-113.42 1407.49,-108.72 1407.49,-108.72 1407.49,-108.72 1405.79,-113.42 1403.26,-107.19 1404.09,-118.12 1404.09,-118.12"/>
</g>
<!-- ApplicationRecord -->
<g id="node24" class="node">
<title>ApplicationRecord</title>
<ellipse fill="none" stroke="black" cx="1641.35" cy="-439" rx="79.89" ry="18"/>
<text text-anchor="middle" x="1641.35" y="-435.3" font-family="Times,serif" font-size="14.00">ApplicationRecord</text>
</g>
<!-- Userable -->
<g id="node31" class="node">
<title>Userable</title>
<ellipse fill="none" stroke="black" cx="1414.35" cy="-18" rx="42.79" ry="18"/>
<text text-anchor="middle" x="1414.35" y="-14.3" font-family="Times,serif" font-size="14.00">Userable</text>
</g>
<!-- User&#45;&gt;Userable -->
<g id="edge36" class="edge">
<title>User&#45;&gt;Userable</title>
<path fill="none" stroke="#f2e2d7" d="M1414.35,-62.75C1414.35,-57.28 1414.35,-51.52 1414.35,-46.05"/>
<polygon fill="#f2e2d7" stroke="#f2e2d7" points="1414.35,-62.81 1409.85,-72.81 1414.35,-67.81 1414.35,-72.81 1414.35,-72.81 1414.35,-72.81 1414.35,-67.81 1418.85,-72.81 1414.35,-62.81 1414.35,-62.81"/>
<polygon fill="#f2e2d7" stroke="#f2e2d7" points="1414.35,-46.03 1418.85,-36.03 1414.35,-41.03 1414.35,-36.03 1414.35,-36.03 1414.35,-36.03 1414.35,-41.03 1409.85,-36.03 1414.35,-46.03 1414.35,-46.03"/>
</g>
</g>
</svg>
